<svg class="animated" id="freepik_stories-beach-volleyball" xmlns="http://www.w3.org/2000/svg" viewBox="0 0 500 500" version="1.1" xmlns:xlink="http://www.w3.org/1999/xlink" xmlns:svgjs="http://svgjs.com/svgjs"><style>svg#freepik_stories-beach-volleyball:not(.animated) .animable {opacity: 0;}svg#freepik_stories-beach-volleyball.animated #freepik--character-1--inject-61 {animation: 6s Infinite  linear floating;animation-delay: 0s;}svg#freepik_stories-beach-volleyball.animated #freepik--character-2--inject-61 {animation: 1s 1 forwards cubic-bezier(.36,-0.01,.5,1.38) slideRight;animation-delay: 0s;}svg#freepik_stories-beach-volleyball.animated #freepik--Ball--inject-61 {animation: 1.5s Infinite  linear wind;animation-delay: 0s;}            @keyframes floating {                0% {                    opacity: 1;                    transform: translateY(0px);                }                50% {                    transform: translateY(-10px);                }                100% {                    opacity: 1;                    transform: translateY(0px);                }            }                    @keyframes slideRight {                0% {                    opacity: 0;                    transform: translateX(30px);                }                100% {                    opacity: 1;                    transform: translateX(0);                }            }                    @keyframes wind {                0% {                    transform: rotate( 0deg );                }                25% {                    transform: rotate( 1deg );                }                75% {                    transform: rotate( -1deg );                }            }        </style><g id="freepik--background-complete--inject-61" class="animable" style="transform-origin: 250px 228.23px;"><rect y="382.4" width="500" height="0.25" style="fill: rgb(235, 235, 235); transform-origin: 250px 382.525px;" id="el4sc7gbfx1md" class="animable"></rect><rect x="416.78" y="398.49" width="33.12" height="0.25" style="fill: rgb(235, 235, 235); transform-origin: 433.34px 398.615px;" id="el9w8orvb3nwe" class="animable"></rect><rect x="322.53" y="401.21" width="8.69" height="0.25" style="fill: rgb(235, 235, 235); transform-origin: 326.875px 401.335px;" id="elgvmvtj9zlls" class="animable"></rect><rect x="396.59" y="389.21" width="19.19" height="0.25" style="fill: rgb(235, 235, 235); transform-origin: 406.185px 389.335px;" id="el29jf83bj5zm" class="animable"></rect><rect x="52.46" y="390.89" width="43.19" height="0.25" style="fill: rgb(235, 235, 235); transform-origin: 74.055px 391.015px;" id="el440lngn5czw" class="animable"></rect><rect x="104.56" y="390.89" width="6.33" height="0.25" style="fill: rgb(235, 235, 235); transform-origin: 107.725px 391.015px;" id="elsixquyaarhl" class="animable"></rect><rect x="131.47" y="395.11" width="93.68" height="0.25" style="fill: rgb(235, 235, 235); transform-origin: 178.31px 395.235px;" id="eli8nhpqt4zg" class="animable"></rect><path d="M237,337.8H43.91a5.71,5.71,0,0,1-5.7-5.71V60.66A5.71,5.71,0,0,1,43.91,55H237a5.71,5.71,0,0,1,5.71,5.71V332.09A5.71,5.71,0,0,1,237,337.8ZM43.91,55.2a5.46,5.46,0,0,0-5.45,5.46V332.09a5.46,5.46,0,0,0,5.45,5.46H237a5.47,5.47,0,0,0,5.46-5.46V60.66A5.47,5.47,0,0,0,237,55.2Z" style="fill: rgb(235, 235, 235); transform-origin: 140.46px 196.4px;" id="elyeel5tzccz9" class="animable"></path><path d="M453.31,337.8H260.21a5.72,5.72,0,0,1-5.71-5.71V60.66A5.72,5.72,0,0,1,260.21,55h193.1A5.71,5.71,0,0,1,459,60.66V332.09A5.71,5.71,0,0,1,453.31,337.8ZM260.21,55.2a5.47,5.47,0,0,0-5.46,5.46V332.09a5.47,5.47,0,0,0,5.46,5.46h193.1a5.47,5.47,0,0,0,5.46-5.46V60.66a5.47,5.47,0,0,0-5.46-5.46Z" style="fill: rgb(235, 235, 235); transform-origin: 356.75px 196.4px;" id="elkgjdzx2s8tg" class="animable"></path><path d="M296.32,366.22c-20.52-5.13-37.07-11.63-62-4.23-10.3-1.66-26.56-5.88-34.16-7.77-41.14-10.24-65-2-96.75,6S35,382.4,35,382.4H365.31S317,371.38,296.32,366.22Z" style="fill: rgb(245, 245, 245); transform-origin: 200.155px 365.923px;" id="elzt9zp0mh5c" class="animable"></path><path d="M209.45,373.75c20.52-2.74,30-5.42,55-1.47,11.22-1.22,21.09-2.45,28.27-3.6,38.87-6.24,77.95-2.4,109.68,1.84S470.8,382.4,470.8,382.4H140.46S188.8,376.51,209.45,373.75Z" style="fill: rgb(235, 235, 235); transform-origin: 305.63px 373.901px;" id="eluflht4bq0hl" class="animable"></path><path d="M406.9,200.9c6.12-6.11,22.55-32.16-1.94-27.38C392.31,176,380.43,186.44,376,194.27c2.2-6.1,3-14-10-9.89-20.09,6.34-17.74,22-16.23,26.25-14.4-.31-15,9.57-15,9.57l93.42-13.78S429.18,194,406.9,200.9Z" style="fill: rgb(240, 240, 240); transform-origin: 381.483px 196.569px;" id="el01u3balidhqw" class="animable"></path><path d="M415.82,204.54c4-3.23,5.7-7.93,3.81-10.5S413,192,409,195.25s-5.7,7.93-3.82,10.49S411.83,207.77,415.82,204.54Z" style="fill: rgb(240, 240, 240); transform-origin: 412.408px 199.887px;" id="elib5yzpe54yl" class="animable"></path><path d="M353.81,214.45c3.27-2.64,4.39-6.86,2.5-9.43s-6.05-2.5-9.32.14-4.38,6.87-2.5,9.43S350.55,217.1,353.81,214.45Z" style="fill: rgb(240, 240, 240); transform-origin: 350.402px 209.805px;" id="eljvjqqz5vdvn" class="animable"></path><path d="M415.38,194.35c1.85-1.55,2.45-4,1.34-5.43s-3.51-1.37-5.36.17-2.46,4-1.35,5.43S413.52,195.9,415.38,194.35Z" style="fill: rgb(240, 240, 240); transform-origin: 413.366px 191.722px;" id="el8the42gndxy" class="animable"></path><path d="M422.29,200.36c1.22-1,1.61-2.62.88-3.57s-2.3-.9-3.52.12-1.61,2.61-.89,3.56S421.07,201.37,422.29,200.36Z" style="fill: rgb(240, 240, 240); transform-origin: 420.969px 198.631px;" id="el6zq31z0oxmo" class="animable"></path><path d="M385.56,189.54c2.53-6.55,1.31-11.17-2.71-10.33S373.52,186,371,192.59s-1.31,11.17,2.72,10.33S383,196.09,385.56,189.54Z" style="fill: rgb(240, 240, 240); transform-origin: 378.282px 191.065px;" id="elzk53eqykr0q" class="animable"></path><path d="M270.53,154.66c12.46-20.25,9.35-40.3-11.25-43.69-27.36-4.49-48.64,11-58.63,28.68,5-13.8,9.18-47.64-20.57-44.55-23.12,2.4-47.62,45-46.28,65.15.28,4.19-15.93-25.5-32.37-20.37-25.15,7.83-46.29,66.17-46.29,66.17l263.69-38.9S307.79,140.38,270.53,154.66Z" style="fill: rgb(245, 245, 245); transform-origin: 186.985px 150.476px;" id="eltqe58we2zd" class="animable"></path><g id="el22z67zzjs5k"><ellipse cx="208.57" cy="129.2" rx="21.04" ry="13.02" style="fill: rgb(245, 245, 245); transform-origin: 208.57px 129.2px; transform: rotate(-53.95deg);" class="animable"></ellipse></g><path d="M277.66,156.67c4.2-3.5,5.56-9,3-12.28s-7.95-3.11-12.14.39-5.56,9-3.05,12.28S273.47,160.17,277.66,156.67Z" style="fill: rgb(245, 245, 245); transform-origin: 273.084px 150.725px;" id="elvhw7ujd4zk" class="animable"></path><g id="elnilrebuje8"><ellipse cx="130.32" cy="151.53" rx="14.46" ry="28.13" style="fill: rgb(245, 245, 245); transform-origin: 130.32px 151.53px; transform: rotate(-5.13deg);" class="animable"></ellipse></g><path d="M260,287.7c4.77-7.75,3.58-15.43-4.3-16.72a21.63,21.63,0,0,0-22.45,11c1.9-5.28,3.52-18.24-7.87-17.06-8.85.92-18.23,17.24-17.72,24.94.11,1.61-6.1-9.76-12.39-7.8-9.63,3-17.72,25.34-17.72,25.34l101-14.89S274.25,282.24,260,287.7Z" style="fill: rgb(245, 245, 245); transform-origin: 228.05px 286.122px;" id="elearb9dgpp6d" class="animable"></path><path d="M240.53,280.56c2.5-3.68,2.62-7.82.27-9.26s-6.3.38-8.8,4.06-2.62,7.81-.27,9.25S238,284.23,240.53,280.56Z" style="fill: rgb(245, 245, 245); transform-origin: 236.265px 277.955px;" id="elo1inmtu2z3r" class="animable"></path><path d="M262.72,288.47c1.6-1.34,2.12-3.44,1.16-4.7s-3-1.19-4.65.15-2.12,3.45-1.16,4.7S261.11,289.81,262.72,288.47Z" style="fill: rgb(245, 245, 245); transform-origin: 260.969px 286.193px;" id="el2o17y5fwnqp" class="animable"></path><path d="M210.88,281.46c-1.79-5.23-5.28-7.22-7.81-4.43s-3.11,9.29-1.33,14.53,5.28,7.21,7.8,4.42S212.66,286.69,210.88,281.46Z" style="fill: rgb(245, 245, 245); transform-origin: 206.307px 286.507px;" id="eldlvbtraa1qu" class="animable"></path><circle cx="361.51" cy="110.95" r="30.28" style="fill: rgb(245, 245, 245); transform-origin: 361.51px 110.95px;" id="elb6wk6nv67mt" class="animable"></circle></g><g id="freepik--Shadow--inject-61" class="animable" style="transform-origin: 250px 416.24px;"><ellipse id="freepik--path--inject-61" cx="250" cy="416.24" rx="193.89" ry="11.32" style="fill: rgb(245, 245, 245); transform-origin: 250px 416.24px;" class="animable"></ellipse></g><g id="freepik--character-1--inject-61" class="animable animator-active" style="transform-origin: 107.137px 249.06px;"><path d="M127.73,168l.7-.29.85-.36,1.74-.77c1.15-.54,2.31-1.08,3.43-1.68a54.43,54.43,0,0,0,6.35-3.81,28.65,28.65,0,0,0,2.73-2.13,21.21,21.21,0,0,0,2.3-2.22,14.46,14.46,0,0,0,2.84-4.53l-.21,1.89c.1-2.4.26-4.8.33-7.2s.17-4.83.21-7.25.09-4.85.12-7.29l.06-7.23v-.23a4.3,4.3,0,0,1,8.28-1.58,71.1,71.1,0,0,1,2.52,7.55c.71,2.51,1.3,5,1.83,7.59s1,5.12,1.28,7.7.62,5.17.8,7.77a4.41,4.41,0,0,1-.08,1.26l-.13.63a27.82,27.82,0,0,1-2,5.94,29.39,29.39,0,0,1-3.06,5.08,40.12,40.12,0,0,1-7.62,7.76,56.61,56.61,0,0,1-8.49,5.54c-1.47.78-2.94,1.52-4.46,2.18-.75.33-1.52.66-2.3,1l-1.19.44-1.35.47a8.54,8.54,0,0,1-6.06-16Z" style="fill: rgb(127, 62, 59); transform-origin: 142.766px 152.715px;" id="el856rz991fom" class="animable"></path><path d="M149.68,129l-2.61-7.89,11.12-2s3,7.25-.66,9.26Z" style="fill: rgb(127, 62, 59); transform-origin: 153.209px 124.055px;" id="el0nianhgnbzt" class="animable"></path><path d="M149.86,112.19l1.86-.43a4.18,4.18,0,0,1,4.89,2.71l1.58,4.57-11.12,2-.32-.54a5.74,5.74,0,0,1,2.31-8A4.34,4.34,0,0,1,149.86,112.19Z" style="fill: rgb(127, 62, 59); transform-origin: 152.076px 116.347px;" id="el59ql5y19tvi" class="animable"></path><path d="M65.69,347.8c2.2-.6,6.92.1,8.91-5.53,0,0,9.57,4.58,7.63,6.58S72.8,364,72.63,375.53c0,1.1-3.07-.1-3.15-2.63a43.12,43.12,0,0,0-2.75-14.76c-1.18-2.82-2.44-3.48-3.42-5.74A3.35,3.35,0,0,1,65.69,347.8Z" style="fill: rgb(127, 62, 59); transform-origin: 72.7635px 359.104px;" id="el9dtdo89m6gj" class="animable"></path><path d="M142.05,371.15c1.18-1.95,4.92-5.49,7-13.2,0,0,8.8,1.69,8.35,4.44-1.87,11.3,2.57,17.43,8.4,22.62.82.72-1.46,1.92-3.91,1.27-5.54-1.48-9.09-7.31-12.37-8.75-2.8-1.23-3.79-.57-6.68-2.21C141,374.3,140.88,373.11,142.05,371.15Z" style="fill: rgb(127, 62, 59); transform-origin: 153.63px 372.208px;" id="el4dm9af9gpws" class="animable"></path><path d="M143.24,174.31c-7.11-5.53-23-9.88-34.77-6.52a12.05,12.05,0,0,0-8.24,8.33c-5.29,18.74-1.73,42,2.49,61.74l52.1-.11s10.59-15.28-.42-33.94C153.82,192.8,150,179.6,143.24,174.31Z" style="fill: rgb(127, 62, 59); transform-origin: 128.49px 202.236px;" id="elzcwk65lbepc" class="animable"></path><g id="elve81bpxerrb"><path d="M144.86,225.29c-.15.46,0,.92.34,1s.74-.18.89-.65a.77.77,0,0,0-.35-1C145.4,224.54,145,224.83,144.86,225.29Z" style="opacity: 0.2; transform-origin: 145.48px 225.462px;" class="animable"></path></g><g id="elallovwjz2b"><path d="M104.62,175.5c-1,1.17-3,2.29-5.09,3.37A78.71,78.71,0,0,0,97.61,195C102,189.91,105.85,184.15,104.62,175.5Z" style="opacity: 0.2; transform-origin: 101.231px 185.25px;" class="animable"></path></g><path d="M159.58,248a280.88,280.88,0,0,1,7,60.31c0,17.92-11.11,61-11.11,61l-8.63-2.11c7.41-10.63-7.38-40.82-2.38-61.25-11-15.47-15.49-34.15-19.23-58C142.93,242.85,159.58,248,159.58,248Z" style="fill: rgb(127, 62, 59); transform-origin: 145.905px 307.503px;" id="elyhv3jkq2dc" class="animable"></path><path d="M167.26,274.71c-3.54,4.58-24.5,11.49-36.28,6.74-5.4-7.15-7-25.54-4.71-44.65a6.87,6.87,0,0,1-.16-7.69c10.61.48,17.85,1.43,28.66,6.16C160.33,237.5,164.76,266.75,167.26,274.71Z" style="fill: rgb(38, 50, 56); transform-origin: 146.136px 256.079px;" id="elkum7wa1i3u" class="animable"></path><path d="M140.19,232.2H140a.29.29,0,0,1-.22-.13.25.25,0,0,1,0-.25c1.65-3.51,9.8-5.92,13.28-5.79.9,0,1.41.24,1.55.63s-.31,1-.47,1.13C151.07,230.74,143.07,232.2,140.19,232.2Zm12.57-5.64c-3.37,0-10.42,2.17-12.29,5.1,2.81-.1,10.41-1.48,13.29-4.25.3-.29.37-.48.35-.56s-.31-.25-1.08-.28Z" style="fill: rgb(255, 255, 255); transform-origin: 147.192px 229.112px;" id="el6x2ryer762k" class="animable"></path><path d="M147.72,237.25h-.12c-2.54-.06-5.23-1.84-7.8-5.16a.27.27,0,0,1,0-.32.28.28,0,0,1,.32-.09c2.22.93,5.35,1,7.86,1s4.3.05,4.67.87c.18.39,0,.88-.5,1.49A5.75,5.75,0,0,1,147.72,237.25Zm-6.91-4.76c2.28,2.72,4.62,4.17,6.8,4.22a5.22,5.22,0,0,0,4.14-2c.35-.41.5-.74.42-.92-.24-.51-2.25-.54-4.19-.56A27.12,27.12,0,0,1,140.81,232.49Z" style="fill: rgb(255, 255, 255); transform-origin: 146.233px 234.456px;" id="elpahkpclydm" class="animable"></path><g id="elh4rpy2pn60q"><path d="M129.07,257.79a11.31,11.31,0,0,0-3.8-2.94c.15,11.84,2.07,21.78,5.71,26.61a20.32,20.32,0,0,0,3.77,1.08C135.38,273.7,133.32,262.83,129.07,257.79Z" style="opacity: 0.2; transform-origin: 130.066px 268.695px;" class="animable"></path></g><path d="M136.83,238.78s-6.19,35.47-19.85,65c-6.55,14.13-38.3,49.1-38.3,49.1l-5.61-5.21S82.2,309,98.74,295c-3.5-21-.83-34.29,6.41-57.29A135.26,135.26,0,0,1,136.83,238.78Z" style="fill: rgb(127, 62, 59); transform-origin: 104.95px 295.058px;" id="elkldurt2okd" class="animable"></path><path d="M126.9,281.81s-22.22-.62-31.63-9.24c-3-11.36,5.26-25.44,6.1-33.6a8.49,8.49,0,0,1-.05-8.3c8.35-1.74,23.57-2.8,35-.07C140.54,235.78,133.32,268,126.9,281.81Z" style="fill: rgb(38, 50, 56); transform-origin: 116.098px 255.371px;" id="elte8zpwlxrrs" class="animable"></path><g id="elpbtff7vw41i"><g style="opacity: 0.2; transform-origin: 130.93px 255.382px;" class="animable"><path d="M158.44,240.58a21.25,21.25,0,0,0-1.68-3.35,1.38,1.38,0,0,1,0,.2A3.49,3.49,0,0,0,158.44,240.58Z" style="fill: rgb(255, 255, 255); transform-origin: 157.598px 238.905px;" id="elcx2t2eii3r5" class="animable"></path><path d="M144.76,240.38a3.5,3.5,0,1,0-3.33-3.66A3.5,3.5,0,0,0,144.76,240.38Z" style="fill: rgb(255, 255, 255); transform-origin: 144.926px 236.884px;" id="ely1gt4fiw1un" class="animable"></path><path d="M129.46,239.67a3.5,3.5,0,1,0-3.34-3.66A3.5,3.5,0,0,0,129.46,239.67Z" style="fill: rgb(255, 255, 255); transform-origin: 129.616px 236.173px;" id="elf9veini1gbc" class="animable"></path><path d="M114.15,239a3.5,3.5,0,1,0-3.33-3.66A3.5,3.5,0,0,0,114.15,239Z" style="fill: rgb(255, 255, 255); transform-origin: 114.316px 235.504px;" id="elzt93t9boc6h" class="animable"></path><path d="M102.51,234.91a3.51,3.51,0,0,0-1.7-3.15,8.49,8.49,0,0,0,0,6A3.5,3.5,0,0,0,102.51,234.91Z" style="fill: rgb(255, 255, 255); transform-origin: 101.388px 234.76px;" id="elx376i6goes" class="animable"></path><path d="M159.36,256.4a3.5,3.5,0,0,0,3.22-1.82c-.37-1.56-.75-3.1-1.15-4.61a3.5,3.5,0,1,0-2.07,6.43Z" style="fill: rgb(255, 255, 255); transform-origin: 159.301px 252.903px;" id="el3gm8d8dadcw" class="animable"></path><path d="M144.05,255.69a3.5,3.5,0,1,0-3.33-3.66A3.51,3.51,0,0,0,144.05,255.69Z" style="fill: rgb(255, 255, 255); transform-origin: 144.216px 252.194px;" id="elxzrmf0tdivm" class="animable"></path><path d="M128.75,255a3.5,3.5,0,1,0-3.34-3.67A3.51,3.51,0,0,0,128.75,255Z" style="fill: rgb(255, 255, 255); transform-origin: 128.906px 251.503px;" id="elvniya8t8xb" class="animable"></path><path d="M113.77,247.27a3.5,3.5,0,1,0,3.33,3.66A3.49,3.49,0,0,0,113.77,247.27Z" style="fill: rgb(255, 255, 255); transform-origin: 113.604px 250.766px;" id="elr71c1t2koci" class="animable"></path><path d="M101.8,250.22a3.5,3.5,0,0,0-2.39-3.47c-.68,2.1-1.45,4.33-2.18,6.63a3.86,3.86,0,0,0,.91.18A3.51,3.51,0,0,0,101.8,250.22Z" style="fill: rgb(255, 255, 255); transform-origin: 99.5166px 250.157px;" id="elwbq4el5oyd" class="animable"></path><path d="M158.65,271.7a3.5,3.5,0,1,0-3.34-3.66A3.5,3.5,0,0,0,158.65,271.7Z" style="fill: rgb(255, 255, 255); transform-origin: 158.806px 268.204px;" id="ellc954a0dxxj" class="animable"></path><path d="M147,267.66a3.5,3.5,0,1,0-3.67,3.33A3.51,3.51,0,0,0,147,267.66Z" style="fill: rgb(255, 255, 255); transform-origin: 143.504px 267.494px;" id="el8wiws4lf0y" class="animable"></path><path d="M131.7,267a3.5,3.5,0,1,0-3.66,3.33A3.5,3.5,0,0,0,131.7,267Z" style="fill: rgb(255, 255, 255); transform-origin: 128.204px 266.834px;" id="elmaq07cvhie" class="animable"></path><path d="M112.73,269.57a3.5,3.5,0,1,0-3.33-3.66A3.5,3.5,0,0,0,112.73,269.57Z" style="fill: rgb(255, 255, 255); transform-origin: 112.896px 266.074px;" id="elvy7pybnfn8" class="animable"></path><path d="M101.09,265.53a3.49,3.49,0,0,0-6.2-2.38,30.86,30.86,0,0,0-.29,4,3.51,3.51,0,0,0,6.49-1.66Z" style="fill: rgb(255, 255, 255); transform-origin: 97.8475px 265.333px;" id="elri0khdpu2o" class="animable"></path><path d="M148.73,244.73a3.5,3.5,0,1,0,3.66-3.34A3.5,3.5,0,0,0,148.73,244.73Z" style="fill: rgb(255, 255, 255); transform-origin: 152.227px 244.886px;" id="elqk2a86jtym" class="animable"></path><path d="M137.08,240.68a3.5,3.5,0,1,0,3.34,3.66A3.5,3.5,0,0,0,137.08,240.68Z" style="fill: rgb(255, 255, 255); transform-origin: 136.924px 244.177px;" id="eln24t02q3ugi" class="animable"></path><path d="M121.45,247a3.5,3.5,0,1,0-3.34-3.66A3.51,3.51,0,0,0,121.45,247Z" style="fill: rgb(255, 255, 255); transform-origin: 121.606px 243.504px;" id="elhtvkbqjf15j" class="animable"></path><path d="M106.47,239.26a3.5,3.5,0,1,0,3.34,3.66A3.5,3.5,0,0,0,106.47,239.26Z" style="fill: rgb(255, 255, 255); transform-origin: 106.314px 242.757px;" id="eljm43tbfn7s" class="animable"></path><path d="M164.62,263.62c-.3-1.38-.61-2.81-.94-4.26a3.57,3.57,0,0,0-.36,1.38A3.52,3.52,0,0,0,164.62,263.62Z" style="fill: rgb(255, 255, 255); transform-origin: 163.968px 261.49px;" id="el3s0uezoqawm" class="animable"></path><path d="M151.68,256.7a3.5,3.5,0,1,0,3.33,3.66A3.49,3.49,0,0,0,151.68,256.7Z" style="fill: rgb(255, 255, 255); transform-origin: 151.514px 260.196px;" id="el56k9g20j4lb" class="animable"></path><path d="M136.37,256a3.5,3.5,0,1,0,3.34,3.66A3.5,3.5,0,0,0,136.37,256Z" style="fill: rgb(255, 255, 255); transform-origin: 136.214px 259.496px;" id="elot57uh60us" class="animable"></path><path d="M121.06,255.28a3.5,3.5,0,1,0,3.34,3.66A3.5,3.5,0,0,0,121.06,255.28Z" style="fill: rgb(255, 255, 255); transform-origin: 120.904px 258.777px;" id="elyn0q2y97nn" class="animable"></path><path d="M105.76,254.57a3.5,3.5,0,1,0,3.34,3.66A3.5,3.5,0,0,0,105.76,254.57Z" style="fill: rgb(255, 255, 255); transform-origin: 105.604px 258.067px;" id="ele1ripwvp1h" class="animable"></path><path d="M162.61,276.05a3.41,3.41,0,0,0,.38,1.71,13.48,13.48,0,0,0,4.27-3.05c-.18-.55-.36-1.2-.55-1.93a2.89,2.89,0,0,0-.44-.07A3.51,3.51,0,0,0,162.61,276.05Z" style="fill: rgb(255, 255, 255); transform-origin: 164.934px 275.233px;" id="el8ne4wi6yd08" class="animable"></path><path d="M150.64,279a3.5,3.5,0,1,0-3.33-3.66A3.49,3.49,0,0,0,150.64,279Z" style="fill: rgb(255, 255, 255); transform-origin: 150.806px 275.504px;" id="elsmiquwndkeh" class="animable"></path><path d="M135.66,271.29a3.39,3.39,0,0,0-1.39.22,54.08,54.08,0,0,1,.58,6.72,2.63,2.63,0,0,0,.48.06,3.5,3.5,0,0,0,.33-7Z" style="fill: rgb(255, 255, 255); transform-origin: 136.632px 274.79px;" id="elyfbrymijcap" class="animable"></path><g id="elzs285b5lvmm"><path d="M132,274.63a3.49,3.49,0,0,0,2.85,3.6,54.08,54.08,0,0,0-.58-6.72A3.52,3.52,0,0,0,132,274.63Z" style="fill: rgb(255, 255, 255); opacity: 0.5; transform-origin: 133.423px 274.87px;" class="animable"></path></g><path d="M120,277.58a3.5,3.5,0,1,0-3.34-3.66A3.5,3.5,0,0,0,120,277.58Z" style="fill: rgb(255, 255, 255); transform-origin: 120.156px 274.083px;" id="el3i81pvmiby2" class="animable"></path><path d="M105.05,269.87a3.5,3.5,0,1,0,3.34,3.66A3.51,3.51,0,0,0,105.05,269.87Z" style="fill: rgb(255, 255, 255); transform-origin: 104.894px 273.367px;" id="elpnxrlx3gz9" class="animable"></path></g></g><g id="elcx66y3b7l1p"><ellipse cx="121.63" cy="190.83" rx="0.64" ry="0.88" style="opacity: 0.2; transform-origin: 121.63px 190.83px; transform: rotate(-18.33deg);" class="animable"></ellipse></g><g id="eltic73jbypul"><path d="M147.63,192.35c.05.48.38.83.74.78a.81.81,0,0,0,.53-1c-.06-.48-.39-.83-.74-.78A.81.81,0,0,0,147.63,192.35Z" style="opacity: 0.2; transform-origin: 148.265px 192.24px;" class="animable"></path></g><path d="M110.9,152c2.08,6,4.47,17.1-1.4,21.55,0,0,2.76,6.06,19,5.08,10.85-.66,11.53-3,10.4-4.73a6.24,6.24,0,0,0-4.13-2.26c-8-1.47-7.91-6.17-6.59-10.69Z" style="fill: rgb(127, 62, 59); transform-origin: 124.398px 165.369px;" id="elnqc61ci0b7d" class="animable"></path><g id="elp5d8ylxncak"><path d="M117.94,155.6l10.23,5.3a14.39,14.39,0,0,0-.64,3.42c-2.48.39-9.56-1.51-10.12-4.21A10.8,10.8,0,0,1,117.94,155.6Z" style="opacity: 0.2; transform-origin: 122.766px 159.985px;" class="animable"></path></g><path d="M119.4,134.74c3.4-3.49,6.91-4.52,9.09-1.51s2.84,7,5.26,7.57c-1.34,1.44-6.28,1.92-6.28,1.92Z" style="fill: rgb(38, 50, 56); transform-origin: 126.575px 137.088px;" id="ely4sl57wy2b" class="animable"></path><path d="M109.16,146.73c3.34,7.6,4.92,12.22,10.32,14.76,8.12,3.83,16.41-3.28,15.4-11.72-.91-7.61-6.23-18.76-15-19.05A11.33,11.33,0,0,0,109.16,146.73Z" style="fill: rgb(127, 62, 59); transform-origin: 121.554px 146.633px;" id="elbcmzxk29fjc" class="animable"></path><path d="M112.64,152.57c2,2,3.13-3.78,3.13-3.78s-3.81-2.6-4.31-4.18c-.57-1.8,2-4.17.58-6.45,7.57-1.53,19.83-5,19.66-15.65s-11.69-13.49-16.77-8-1.41,10-6.27,11-.89,6.4-3,8.56c-1.89,2-5.87,4-3.42,6.29-4.76,2.28-4.19,8.46-.3,9.29S110.09,150,112.64,152.57Z" style="fill: rgb(38, 50, 56); transform-origin: 115.274px 132.384px;" id="elt9wztuanudo" class="animable"></path><path d="M121.76,144.55c.23.63.75,1,1.17.87s.56-.79.32-1.42-.75-1-1.17-.87S121.52,143.92,121.76,144.55Z" style="fill: rgb(38, 50, 56); transform-origin: 122.505px 144.275px;" id="el8c1rjbuevbq" class="animable"></path><path d="M128.91,141.91c.24.63.76,1,1.18.87s.56-.79.32-1.42-.76-1-1.17-.87S128.68,141.28,128.91,141.91Z" style="fill: rgb(38, 50, 56); transform-origin: 129.665px 141.635px;" id="elin4iag7fzh" class="animable"></path><path d="M126.75,143.06a24.14,24.14,0,0,0,5,4.31,3.93,3.93,0,0,1-2.82,1.68Z" style="fill: rgb(99, 15, 15); transform-origin: 129.25px 146.055px;" id="el6izieen4ivm" class="animable"></path><path d="M126.31,151.83a6.09,6.09,0,0,0,1.45-.35.2.2,0,0,0,.12-.26.2.2,0,0,0-.26-.11,5.33,5.33,0,0,1-4.81-.46.2.2,0,0,0-.24.32A5.49,5.49,0,0,0,126.31,151.83Z" style="fill: rgb(38, 50, 56); transform-origin: 125.192px 151.244px;" id="el8bejczwqiu7" class="animable"></path><path d="M115.81,142.28a.4.4,0,0,0,.29-.32,3.16,3.16,0,0,1,1.58-2.39.4.4,0,0,0-.34-.72,3.94,3.94,0,0,0-2,3,.41.41,0,0,0,.34.45A.44.44,0,0,0,115.81,142.28Z" style="fill: rgb(38, 50, 56); transform-origin: 116.606px 140.563px;" id="eljbodta0m5zb" class="animable"></path><path d="M130.91,135.13a.4.4,0,0,0,0-.72,4,4,0,0,0-3.62-.06.39.39,0,0,0-.14.54.4.4,0,0,0,.54.15,3.12,3.12,0,0,1,2.86.08A.45.45,0,0,0,130.91,135.13Z" style="fill: rgb(38, 50, 56); transform-origin: 129.115px 134.555px;" id="elxi1byy4owqt" class="animable"></path><path d="M107.53,153.85a8.2,8.2,0,0,0,5.52,2.28c2.69,0,3.14-2.56,1.65-4.71-1.34-1.94-4.35-4.27-6.68-3.24S105.68,152.07,107.53,153.85Z" style="fill: rgb(127, 62, 59); transform-origin: 110.872px 152.029px;" id="el8b0p5ns1xr" class="animable"></path><path d="M115.94,183.84c-2.53.47-5.34,1.06-8.09,1.72s-5.53,1.4-8.26,2.17-5.4,1.65-8,2.58a56.3,56.3,0,0,0-7.06,3.13l.77-.58c-1.88,1.42-3.87,3.12-5.82,4.9s-3.94,3.68-5.88,5.6-3.93,3.88-5.9,5.84-4,4-6,5.88l-.07.07a4.29,4.29,0,0,1-6.83-5c1.29-2.68,2.7-5.17,4.18-7.68s3.05-5,4.7-7.37S67.12,190.31,69,188a70,70,0,0,1,6.3-6.9,2.61,2.61,0,0,1,.27-.22l.51-.36a57,57,0,0,1,9.15-5.22,89.89,89.89,0,0,1,9.16-3.69c3.06-1.08,6.16-2,9.3-2.79a83.85,83.85,0,0,1,9.78-1.9,8.55,8.55,0,0,1,2.65,16.89Z" style="fill: rgb(127, 62, 59); transform-origin: 88.7583px 191.608px;" id="elwcs3tzpm1" class="animable"></path><path d="M53.63,208.68l3.16,9.18,3.37-1.68a5.79,5.79,0,0,0,3.07-6.44l-.49-2.2C60.39,204.77,53.63,208.68,53.63,208.68Z" style="fill: rgb(127, 62, 59); transform-origin: 58.4991px 212.204px;" id="el6qv1dzceiyd" class="animable"></path><path d="M49.33,210.88a3.82,3.82,0,0,0-2.13,4.69l.62,1.52A3.83,3.83,0,0,0,52.53,219l4.26-1.17-3.16-9.18Z" style="fill: rgb(127, 62, 59); transform-origin: 51.9018px 213.935px;" id="elehgvzdtds6t" class="animable"></path></g><g id="freepik--character-2--inject-61" class="animable" style="transform-origin: 359.79px 324.087px;"><path d="M361.42,249c1.7-12.07.91-13.77,7.11-13.77,0-5,22.7-4.62,23.64,14.69.6,12.5-9,14.51-9,14.51s21.64,13.52,15,30.31c-8.11,20.64-34.66,20.38-38.51,7.67S371,265,371,265,354,258,361.42,249Z" style="fill: rgb(38, 50, 56); transform-origin: 379.235px 271.881px;" id="elu3096noanw" class="animable"></path><path d="M319.28,304.88a5.6,5.6,0,0,0-3.29-3.53l-2.3-.9a6,6,0,0,0-5.56.63l-.36.25a2.48,2.48,0,0,0-1,2.6l.69,2.86a2.45,2.45,0,0,0,2.76,1.85l1.42-.22s5-.21,8-2.54Z" style="fill: rgb(255, 139, 123); transform-origin: 313.173px 304.354px;" id="el1eyp1fgjhp8" class="animable"></path><path d="M359.73,282.26c-.09.5-.14.75-.22,1.1l-.22.94c-.16.62-.34,1.22-.52,1.81-.37,1.19-.8,2.35-1.26,3.49a42.48,42.48,0,0,1-3.38,6.57,38.59,38.59,0,0,1-10.2,10.9,10,10,0,0,1-1.47.87c-.23.1-.47.22-.68.3l-.61.22A14.73,14.73,0,0,1,339,309a30.73,30.73,0,0,1-3.85.4,55.74,55.74,0,0,1-7-.21A87.47,87.47,0,0,1,314.8,307a2.77,2.77,0,0,1,.54-5.45h.07c4.26-.2,8.59-.34,12.75-.67,2.08-.15,4.14-.38,6-.69a19.12,19.12,0,0,0,2.59-.6,6.71,6.71,0,0,0,.92-.35l.15-.08s0,0,.06-.05,0,0-.08,0a32.52,32.52,0,0,0,3.77-4,37.62,37.62,0,0,0,3.12-4.64,43.44,43.44,0,0,0,2.43-5.11c.36-.87.68-1.76,1-2.65.14-.44.26-.89.39-1.32l.18-.64.12-.49.11-.4a5.53,5.53,0,0,1,10.8,2.36Z" style="fill: rgb(255, 139, 123); transform-origin: 336.265px 292.553px;" id="el4tc9kpl8z1y" class="animable"></path><path d="M348.44,283.53c.13,3.08-4.73,10.21,1.27,14.33a67.18,67.18,0,0,0,1.79,17.95c.77,3.12-.3,6.84,2.05,8.83l30.74-4.23c.25-2.1-.49-3.86-.6-6-.39-7.65.48-17.19,3.73-32.76a7.91,7.91,0,0,0-6.95-9.5c-1.25-.13-2.58-.23-3.93-.3a100.75,100.75,0,0,0-14.23,0c-1.54.14-3.12.34-4.64.55A10.75,10.75,0,0,0,348.44,283.53Z" style="fill: rgb(255, 139, 123); transform-origin: 367.147px 298.119px;" id="elf27b07p1on9" class="animable"></path><g id="el0u5u5cynxzl"><path d="M358.85,297.56,349.7,299c0,.69,0,1.4,0,2.11a102.36,102.36,0,0,1,25-.54c5.36.54,8.19.29,9.48.42.07-.56.13-1.13.2-1.72Z" style="opacity: 0.2; transform-origin: 367.04px 299.335px;" class="animable"></path></g><g id="eljkrejrl723o"><path d="M362.46,317.52c-.07.48-.42.83-.78.77a.82.82,0,0,1-.51-1c.07-.49.42-.83.78-.77A.82.82,0,0,1,362.46,317.52Z" style="opacity: 0.2; transform-origin: 361.815px 317.405px;" class="animable"></path></g><g id="elyikueqxo7i"><path d="M379.2,279.92c.73,2.76,3.68,7,6.63,9.94.39-2.17.83-4.47,1.33-6.93Z" style="opacity: 0.2; transform-origin: 383.18px 284.89px;" class="animable"></path></g><path d="M375.13,255.87c-.9,4.57-1.8,13,1.41,16a34,34,0,0,0-15.71,8.68c-3.21-6,1.48-8.68,1.48-8.68,5.1-1.21,5-5,4.08-8.56Z" style="fill: rgb(255, 139, 123); transform-origin: 368.123px 268.21px;" id="elzocjo6mrr4n" class="animable"></path><g id="el7rzepjmoqze"><path d="M371.57,258.91l-5.17,4.41a15,15,0,0,1,.44,2.52c2-.28,4.62-2.42,4.83-4.46A7.08,7.08,0,0,0,371.57,258.91Z" style="opacity: 0.2; transform-origin: 369.067px 262.375px;" class="animable"></path></g><path d="M381.66,252.19c-3.73,6.68-5.17,9.59-10.29,11.48-7.69,2.84-14.91-3.14-13.21-10.79,1.54-6.88,7.39-16.65,15.32-16.2S385.4,245.51,381.66,252.19Z" style="fill: rgb(255, 139, 123); transform-origin: 370.493px 250.527px;" id="el8uug98pkz47" class="animable"></path><path d="M369.06,236c-3,4.66,9.22,8.94,9.22,8.94s-5.75,6.49,0,9.16c7.81-1.76,8.59-5.92,7.47-9.71S378.07,232.86,369.06,236Z" style="fill: rgb(38, 50, 56); transform-origin: 377.372px 244.684px;" id="el0wt75k24456i" class="animable"></path><path d="M357.49,325.6s-52.67,15-48.68,29.84c3.29,12.25,17.13,52.3,17.13,52.3l5.91-2.52s2.26-33-4.82-46.49a272.7,272.7,0,0,0,45.17-10.39Z" style="fill: rgb(255, 139, 123); transform-origin: 340.397px 366.67px;" id="el8fds8iti0zj" class="animable"></path><g id="elvhwhfmnhkzt"><path d="M347.44,355c8.25-1.83,15.16-3.76,19.56-5.07.51-.54,1-1.09,1.53-1.62C368,339.78,352.43,342.47,347.44,355Z" style="opacity: 0.2; transform-origin: 357.985px 349.184px;" class="animable"></path></g><path d="M362.66,324.64s-7.51,43.34-4.87,50.81c4.12,11.62,41.45,28.12,42.4,29.62l5.67-4.31s-15.75-23.61-29.55-28.33c3.73-26.69,19.49-29.19,8-52Z" style="fill: rgb(255, 139, 123); transform-origin: 381.544px 362.75px;" id="el7987t9uru7h" class="animable"></path><path d="M371,249.28c-.27.56-.79.87-1.15.7s-.45-.78-.18-1.34.79-.87,1.15-.69S371.29,248.72,371,249.28Z" style="fill: rgb(38, 50, 56); transform-origin: 370.339px 248.963px;" id="elfkzn47wf3h5" class="animable"></path><path d="M364.08,246.06c-.27.56-.79.87-1.15.69s-.45-.77-.18-1.33.79-.88,1.16-.7S364.35,245.49,364.08,246.06Z" style="fill: rgb(38, 50, 56); transform-origin: 363.418px 245.735px;" id="elv8543ceh7n" class="animable"></path><path d="M364.05,244.83l-1.16-1S363.08,245.18,364.05,244.83Z" style="fill: rgb(38, 50, 56); transform-origin: 363.47px 244.359px;" id="elzivathwpq9p" class="animable"></path><path d="M365.56,247.9a16.74,16.74,0,0,1-3.73,2.61,2.68,2.68,0,0,0,1.82,1.34Z" style="fill: rgb(255, 86, 82); transform-origin: 363.695px 249.875px;" id="elfstyqr2a325" class="animable"></path><path d="M365.87,255.48a6.66,6.66,0,0,1-1-.37.19.19,0,0,1-.08-.25.17.17,0,0,1,.24-.08,5,5,0,0,0,4.46,0,.17.17,0,0,1,.25.06.18.18,0,0,1-.06.25A5.12,5.12,0,0,1,365.87,255.48Z" style="fill: rgb(38, 50, 56); transform-origin: 367.269px 255.215px;" id="elc26cm8aq3y5" class="animable"></path><path d="M381.09,257a4.92,4.92,0,0,1-3.63,1.78c-1.76,0-2.06-2-1.09-3.72.88-1.52,2.85-3.35,4.39-2.53S382.3,255.61,381.09,257Z" style="fill: rgb(255, 139, 123); transform-origin: 378.892px 255.554px;" id="elj2dfm8l78p" class="animable"></path><path d="M373.66,247.18a.38.38,0,0,1-.13-.26,2.9,2.9,0,0,0-1.22-2.33.37.37,0,0,1-.13-.5.36.36,0,0,1,.5-.13,3.61,3.61,0,0,1,1.58,2.93.35.35,0,0,1-.35.38A.34.34,0,0,1,373.66,247.18Z" style="fill: rgb(38, 50, 56); transform-origin: 373.196px 245.589px;" id="el67rcvhzpg5d" class="animable"></path><path d="M363.89,240.94a.39.39,0,0,1-.2-.18.36.36,0,0,1,.16-.49,3.61,3.61,0,0,1,3.33-.05.37.37,0,0,1,.14.5.37.37,0,0,1-.5.13,2.9,2.9,0,0,0-2.64.07A.37.37,0,0,1,363.89,240.94Z" style="fill: rgb(38, 50, 56); transform-origin: 365.508px 240.399px;" id="elacn6a3ra8nd" class="animable"></path><path d="M371,248.06l-1.16-1S370,248.4,371,248.06Z" style="fill: rgb(38, 50, 56); transform-origin: 370.42px 247.588px;" id="eldm6qbok9k6j" class="animable"></path><path d="M384.29,320.41a2.89,2.89,0,0,1,1.17,2.46c-8.48,1.77-25.19,6.68-26.86,29.46-3.91.55-11.48-19-5.93-28.75C361.63,319.38,384.29,320.41,384.29,320.41Z" style="fill: rgb(38, 50, 56); transform-origin: 368.084px 336.32px;" id="elaebqu77e7wj" class="animable"></path><path d="M398.9,315.29a5.57,5.57,0,0,0-4.8.57L392,317.21a5.85,5.85,0,0,0-2.72,4.76l0,.5a2.45,2.45,0,0,0,1.5,2.35l2.71,1.14a2.45,2.45,0,0,0,3.12-1.13l.66-1.28s2.81-4.19,2.67-7.93Z" style="fill: rgb(255, 139, 123); transform-origin: 394.612px 320.569px;" id="elws3cxc6svn" class="animable"></path><path d="M382.44,272.56l1,.3.89.29c.59.2,1.15.41,1.71.64,1.12.44,2.21.92,3.28,1.43a47.11,47.11,0,0,1,6.2,3.56,42.72,42.72,0,0,1,10.49,10l.53.75a9,9,0,0,1,.9,1.46,9.43,9.43,0,0,1,.86,3.14,16.37,16.37,0,0,1-.28,4.48,37,37,0,0,1-2.17,6.9,68.15,68.15,0,0,1-6.41,11.8,2.77,2.77,0,0,1-4.95-2.34l0-.1c1.18-4,2.44-8.05,3.31-12a36.17,36.17,0,0,0,.89-5.57,6.36,6.36,0,0,0-.12-1.92c-.05-.15-.12-.17,0,.07.34.59-.18-.11-.44-.39a39.23,39.23,0,0,0-4-3.81,45.65,45.65,0,0,0-4.59-3.25,53.53,53.53,0,0,0-5-2.7c-.85-.41-1.73-.8-2.6-1.15l-1.3-.49-.63-.24-.51-.17-.41-.15a5.53,5.53,0,0,1,3.36-10.54Z" style="fill: rgb(255, 139, 123); transform-origin: 391.792px 295.413px;" id="elo9ubxhislxh" class="animable"></path><path d="M412.52,411.71c-.58-2.06-4.41-8.16-7.61-12.19,0,0-7.12,3.17-5.26,5,3.37,3.25,3.76,6.94-1.71,7.68-3.13.42-1.09,3.45,1.23,3.45,5.79,0,3.15-.1,6.41-.21,2.79-.09,3.46.25,5.71.2C413.16,415.57,413.09,413.77,412.52,411.71Z" style="fill: rgb(255, 139, 123); transform-origin: 404.608px 407.585px;" id="elodkicm8w8rn" class="animable"></path><path d="M334.62,407.87c-1-2.48-2.62-4.87-2.45-11.37,0,0-8.54,3.67-8,6.22,1.06,4.63-1.45,9.16-8.42,9.67-3.1.22-1.38,3.23.9,3.23,6.89,0,8-2,11.12-2.55,2.71-.48,3.77-.23,5.95-.59C335.59,412.17,335.31,409.62,334.62,407.87Z" style="fill: rgb(255, 139, 123); transform-origin: 324.607px 406.06px;" id="elx8l5ve7qq3e" class="animable"></path><path d="M384.71,300a.76.76,0,0,1-.85.58c-2.79-.41-13.64-1.87-21.44-1.51-6.16.29-10,.77-11.84,1a2.19,2.19,0,0,1-2.13-.92c-1.35-2-3.72-6.26-2.7-11.38.95-4.8,7-5.31,10.51-1.36s6.28,3,9.08-.54c3.29-4.14,11.41-4.43,13.55,1.39,1.93,5.25,3.7,7.75,5.49,8.42a1.32,1.32,0,0,1,.8,1.31A18.73,18.73,0,0,1,384.71,300Z" style="fill: rgb(64, 123, 255); transform-origin: 365.343px 291.703px;" id="elny1kuvproo" class="animable"></path><path d="M376.19,286.62a.41.41,0,0,1-.38-.25,19.8,19.8,0,0,1,.35-14.66.43.43,0,0,1,.55-.2.42.42,0,0,1,.2.54c-3.18,6.92-.37,13.94-.34,14a.41.41,0,0,1-.23.53A.4.4,0,0,1,376.19,286.62Z" style="fill: rgb(64, 123, 255); transform-origin: 375.758px 279.048px;" id="elmwxa700c4z" class="animable"></path><path d="M352.16,285.9a.41.41,0,0,1-.4-.36c0-.11-1.55-11.79,10.59-14.06a.41.41,0,1,1,.15.81c-11.38,2.12-10,12.69-9.93,13.14a.41.41,0,0,1-.35.46Z" style="fill: rgb(64, 123, 255); transform-origin: 357.267px 278.686px;" id="elf7wrz3f5i1k" class="animable"></path><path d="M382.43,262.16c-1,.53-1.31,3.72-.2,4.49a4,4,0,0,0,4.43-.81C387.31,264.83,384.89,260.88,382.43,262.16Z" style="fill: rgb(64, 123, 255); transform-origin: 384.147px 264.45px;" id="elr9863kdxgx" class="animable"></path></g><g id="freepik--volleyball-net--inject-61" class="animable" style="transform-origin: 248.254px 271.515px;"><rect x="216.9" y="318.09" width="1" height="18.37" style="fill: rgb(64, 123, 255); transform-origin: 217.4px 327.275px;" id="elsfz89cf3d5s" class="animable"></rect><rect x="216.9" y="344.62" width="1" height="9.67" style="fill: rgb(64, 123, 255); transform-origin: 217.4px 349.455px;" id="elzhfxgtwwy3h" class="animable"></rect><path d="M222.78,121.74h0a2.69,2.69,0,0,1,2.38,2.92V420.58a.65.65,0,0,1-.58.71H221a.65.65,0,0,1-.58-.71V124.66A2.7,2.7,0,0,1,222.78,121.74Z" style="fill: rgb(64, 123, 255); transform-origin: 222.79px 271.515px;" id="elj69mxkl02h" class="animable"></path><path d="M274.83,282.93a.15.15,0,0,1-.09,0L228,264.24a.25.25,0,0,1-.13-.33.24.24,0,0,1,.32-.13l46.71,18.67a.25.25,0,0,1-.09.48Z" style="fill: rgb(64, 123, 255); transform-origin: 251.451px 273.348px;" id="el4wgvf0lt6pa" class="animable"></path><path d="M274.83,268.92a.23.23,0,0,1-.11,0L228,247.37a.25.25,0,0,1-.12-.33.25.25,0,0,1,.33-.12l46.71,21.52a.26.26,0,0,1,.13.33A.28.28,0,0,1,274.83,268.92Z" style="fill: rgb(64, 123, 255); transform-origin: 251.463px 257.912px;" id="el6a2krd0gqyj" class="animable"></path><path d="M274.83,254.9a.25.25,0,0,1-.12,0L228,230.51a.24.24,0,0,1-.1-.34.24.24,0,0,1,.33-.1l46.71,24.36a.25.25,0,0,1,.11.34A.23.23,0,0,1,274.83,254.9Z" style="fill: rgb(64, 123, 255); transform-origin: 251.472px 242.474px;" id="elfn6s3raimua" class="animable"></path><path d="M274.83,240.89a.31.31,0,0,1-.13,0L228,213.64a.25.25,0,1,1,.25-.43L275,240.43a.25.25,0,0,1,.08.34A.24.24,0,0,1,274.83,240.89Z" style="fill: rgb(64, 123, 255); transform-origin: 251.484px 227.03px;" id="eljlpqx5m0wz" class="animable"></path><path d="M274.83,226.88a.25.25,0,0,1-.14,0L228,196.78a.26.26,0,0,1-.07-.35.24.24,0,0,1,.34-.07L275,226.42a.25.25,0,0,1-.13.46Z" style="fill: rgb(64, 123, 255); transform-origin: 251.502px 211.604px;" id="elkpsdtzrluqa" class="animable"></path><path d="M274.83,212.87a.24.24,0,0,1-.14-.05L228,179.91a.25.25,0,0,1-.06-.35.26.26,0,0,1,.35-.06L275,212.41a.25.25,0,0,1,.06.35A.24.24,0,0,1,274.83,212.87Z" style="fill: rgb(64, 123, 255); transform-origin: 251.5px 196.164px;" id="elx46881ah5m" class="animable"></path><path d="M274.83,198.85a.21.21,0,0,1-.15,0L228,163.05a.25.25,0,0,1,.3-.4L275,198.4a.25.25,0,0,1,0,.35A.25.25,0,0,1,274.83,198.85Z" style="fill: rgb(64, 123, 255); transform-origin: 251.486px 180.732px;" id="el0k2mfrfz9n6" class="animable"></path><path d="M272.65,296.21a.25.25,0,0,1-.25-.25V182.79a.25.25,0,1,1,.5,0V296A.25.25,0,0,1,272.65,296.21Z" style="fill: rgb(64, 123, 255); transform-origin: 272.65px 239.375px;" id="elr7w461xt6j" class="animable"></path><path d="M270.43,295.45a.25.25,0,0,1-.25-.25V181a.25.25,0,1,1,.5,0V295.2A.25.25,0,0,1,270.43,295.45Z" style="fill: rgb(64, 123, 255); transform-origin: 270.43px 238.1px;" id="el57nfvj0rvbf" class="animable"></path><path d="M268.17,294.69a.25.25,0,0,1-.25-.25V179.09a.25.25,0,1,1,.5,0V294.44A.25.25,0,0,1,268.17,294.69Z" style="fill: rgb(64, 123, 255); transform-origin: 268.17px 236.765px;" id="el2izwlsb7exh" class="animable"></path><path d="M265.86,293.91a.25.25,0,0,1-.25-.25V177.18a.25.25,0,0,1,.25-.25.25.25,0,0,1,.25.25V293.66A.25.25,0,0,1,265.86,293.91Z" style="fill: rgb(64, 123, 255); transform-origin: 265.86px 235.42px;" id="el268hltgxm29" class="animable"></path><path d="M263.51,293.11a.25.25,0,0,1-.25-.25V175.24a.25.25,0,0,1,.25-.25.25.25,0,0,1,.25.25V292.86A.25.25,0,0,1,263.51,293.11Z" style="fill: rgb(64, 123, 255); transform-origin: 263.51px 234.05px;" id="elvunnp4yep9" class="animable"></path><path d="M261.12,292.3a.25.25,0,0,1-.25-.25V173.26a.25.25,0,0,1,.25-.25.25.25,0,0,1,.25.25V292.05A.25.25,0,0,1,261.12,292.3Z" style="fill: rgb(64, 123, 255); transform-origin: 261.12px 232.655px;" id="elr6hxbzsr1mg" class="animable"></path><path d="M258.67,291.47a.25.25,0,0,1-.25-.25v-120a.25.25,0,0,1,.5,0v120A.25.25,0,0,1,258.67,291.47Z" style="fill: rgb(64, 123, 255); transform-origin: 258.67px 231.22px;" id="els58mnyl4zv" class="animable"></path><path d="M256.17,290.62a.25.25,0,0,1-.25-.25V169.17a.25.25,0,0,1,.25-.25.25.25,0,0,1,.25.25v121.2A.25.25,0,0,1,256.17,290.62Z" style="fill: rgb(64, 123, 255); transform-origin: 256.17px 229.77px;" id="elvj396ccnlyn" class="animable"></path><path d="M253.63,289.76a.25.25,0,0,1-.25-.25V167.07a.25.25,0,0,1,.25-.25.25.25,0,0,1,.25.25V289.51A.25.25,0,0,1,253.63,289.76Z" style="fill: rgb(64, 123, 255); transform-origin: 253.63px 228.29px;" id="el8c7r8y7649p" class="animable"></path><path d="M251,288.88a.25.25,0,0,1-.25-.25V164.92a.25.25,0,0,1,.25-.25.25.25,0,0,1,.25.25V288.63A.25.25,0,0,1,251,288.88Z" style="fill: rgb(64, 123, 255); transform-origin: 251px 226.775px;" id="el53p3wy2gx5a" class="animable"></path><path d="M248.37,288a.25.25,0,0,1-.25-.25v-125a.25.25,0,0,1,.5,0v125A.25.25,0,0,1,248.37,288Z" style="fill: rgb(64, 123, 255); transform-origin: 248.37px 225.25px;" id="elibwi4dqdt88" class="animable"></path><path d="M245.66,287.06a.25.25,0,0,1-.25-.25V160.49a.25.25,0,0,1,.5,0V286.81A.25.25,0,0,1,245.66,287.06Z" style="fill: rgb(64, 123, 255); transform-origin: 245.66px 223.65px;" id="elsjm6kwsmkq" class="animable"></path><path d="M242.89,286.12a.25.25,0,0,1-.25-.25V158.2a.25.25,0,0,1,.25-.25.25.25,0,0,1,.25.25V285.87A.25.25,0,0,1,242.89,286.12Z" style="fill: rgb(64, 123, 255); transform-origin: 242.89px 222.035px;" id="eljkqmw2uigw" class="animable"></path><path d="M240.07,285.17a.25.25,0,0,1-.25-.25V155.86a.25.25,0,0,1,.5,0V284.92A.25.25,0,0,1,240.07,285.17Z" style="fill: rgb(64, 123, 255); transform-origin: 240.07px 220.39px;" id="elhikgd80ks2c" class="animable"></path><path d="M237.18,284.19a.25.25,0,0,1-.25-.25V153.48a.25.25,0,1,1,.5,0V283.94A.25.25,0,0,1,237.18,284.19Z" style="fill: rgb(64, 123, 255); transform-origin: 237.18px 218.71px;" id="eltj4gfeui1f" class="animable"></path><path d="M234.22,283.19a.26.26,0,0,1-.25-.25V151a.25.25,0,0,1,.25-.25.25.25,0,0,1,.25.25v131.9A.25.25,0,0,1,234.22,283.19Z" style="fill: rgb(64, 123, 255); transform-origin: 234.222px 216.97px;" id="eldpic4wbxsjk" class="animable"></path><path d="M231.2,282.16a.25.25,0,0,1-.25-.25V148.54a.25.25,0,0,1,.25-.25.25.25,0,0,1,.25.25V281.91A.25.25,0,0,1,231.2,282.16Z" style="fill: rgb(64, 123, 255); transform-origin: 231.2px 215.225px;" id="elqy6954fw56n" class="animable"></path><g id="el7k3nx7zf58w"><g style="opacity: 0.6; transform-origin: 251.482px 222.25px;" class="animable"><path d="M274.83,282.93a.15.15,0,0,1-.09,0L228,264.24a.25.25,0,0,1-.13-.33.24.24,0,0,1,.32-.13l46.71,18.67a.25.25,0,0,1-.09.48Z" style="fill: rgb(255, 255, 255); transform-origin: 251.451px 273.348px;" id="el1c2l657u7ey" class="animable"></path><path d="M274.83,268.92a.23.23,0,0,1-.11,0L228,247.37a.25.25,0,0,1-.12-.33.25.25,0,0,1,.33-.12l46.71,21.52a.26.26,0,0,1,.13.33A.28.28,0,0,1,274.83,268.92Z" style="fill: rgb(255, 255, 255); transform-origin: 251.463px 257.912px;" id="el0vh3ur41z9kq" class="animable"></path><path d="M274.83,254.9a.25.25,0,0,1-.12,0L228,230.51a.24.24,0,0,1-.1-.34.24.24,0,0,1,.33-.1l46.71,24.36a.25.25,0,0,1,.11.34A.23.23,0,0,1,274.83,254.9Z" style="fill: rgb(255, 255, 255); transform-origin: 251.472px 242.474px;" id="el0y4o3gl9sc9p" class="animable"></path><path d="M274.83,240.89a.31.31,0,0,1-.13,0L228,213.64a.25.25,0,1,1,.25-.43L275,240.43a.25.25,0,0,1,.08.34A.24.24,0,0,1,274.83,240.89Z" style="fill: rgb(255, 255, 255); transform-origin: 251.484px 227.03px;" id="elmyabj8vd8gp" class="animable"></path><path d="M274.83,226.88a.25.25,0,0,1-.14,0L228,196.78a.26.26,0,0,1-.07-.35.24.24,0,0,1,.34-.07L275,226.42a.25.25,0,0,1-.13.46Z" style="fill: rgb(255, 255, 255); transform-origin: 251.502px 211.604px;" id="elu9dpguzw1s" class="animable"></path><path d="M274.83,212.87a.24.24,0,0,1-.14-.05L228,179.91a.25.25,0,0,1-.06-.35.26.26,0,0,1,.35-.06L275,212.41a.25.25,0,0,1,.06.35A.24.24,0,0,1,274.83,212.87Z" style="fill: rgb(255, 255, 255); transform-origin: 251.5px 196.164px;" id="elyl8wwy71j5" class="animable"></path><path d="M274.83,198.85a.21.21,0,0,1-.15,0L228,163.05a.25.25,0,0,1,.3-.4L275,198.4a.25.25,0,0,1,0,.35A.25.25,0,0,1,274.83,198.85Z" style="fill: rgb(255, 255, 255); transform-origin: 251.486px 180.732px;" id="elgduzvtpw60p" class="animable"></path><path d="M272.65,296.21a.25.25,0,0,1-.25-.25V182.79a.25.25,0,1,1,.5,0V296A.25.25,0,0,1,272.65,296.21Z" style="fill: rgb(255, 255, 255); transform-origin: 272.65px 239.375px;" id="elculy6hguw08" class="animable"></path><path d="M270.43,295.45a.25.25,0,0,1-.25-.25V181a.25.25,0,1,1,.5,0V295.2A.25.25,0,0,1,270.43,295.45Z" style="fill: rgb(255, 255, 255); transform-origin: 270.43px 238.1px;" id="elmw9e5m26anc" class="animable"></path><path d="M268.17,294.69a.25.25,0,0,1-.25-.25V179.09a.25.25,0,1,1,.5,0V294.44A.25.25,0,0,1,268.17,294.69Z" style="fill: rgb(255, 255, 255); transform-origin: 268.17px 236.765px;" id="ely3mu2s0ace" class="animable"></path><path d="M265.86,293.91a.25.25,0,0,1-.25-.25V177.18a.25.25,0,0,1,.25-.25.25.25,0,0,1,.25.25V293.66A.25.25,0,0,1,265.86,293.91Z" style="fill: rgb(255, 255, 255); transform-origin: 265.86px 235.42px;" id="elnflb3eeswd9" class="animable"></path><path d="M263.51,293.11a.25.25,0,0,1-.25-.25V175.24a.25.25,0,0,1,.25-.25.25.25,0,0,1,.25.25V292.86A.25.25,0,0,1,263.51,293.11Z" style="fill: rgb(255, 255, 255); transform-origin: 263.51px 234.05px;" id="elu4u8fyffawc" class="animable"></path><path d="M261.12,292.3a.25.25,0,0,1-.25-.25V173.26a.25.25,0,0,1,.25-.25.25.25,0,0,1,.25.25V292.05A.25.25,0,0,1,261.12,292.3Z" style="fill: rgb(255, 255, 255); transform-origin: 261.12px 232.655px;" id="el2gpjqu9h6ak" class="animable"></path><path d="M258.67,291.47a.25.25,0,0,1-.25-.25v-120a.25.25,0,0,1,.5,0v120A.25.25,0,0,1,258.67,291.47Z" style="fill: rgb(255, 255, 255); transform-origin: 258.67px 231.22px;" id="elyxgmimjfty" class="animable"></path><path d="M256.17,290.62a.25.25,0,0,1-.25-.25V169.17a.25.25,0,0,1,.25-.25.25.25,0,0,1,.25.25v121.2A.25.25,0,0,1,256.17,290.62Z" style="fill: rgb(255, 255, 255); transform-origin: 256.17px 229.77px;" id="eluopex7iol89" class="animable"></path><path d="M253.63,289.76a.25.25,0,0,1-.25-.25V167.07a.25.25,0,0,1,.25-.25.25.25,0,0,1,.25.25V289.51A.25.25,0,0,1,253.63,289.76Z" style="fill: rgb(255, 255, 255); transform-origin: 253.63px 228.29px;" id="el6sx9dwir4hr" class="animable"></path><path d="M251,288.88a.25.25,0,0,1-.25-.25V164.92a.25.25,0,0,1,.25-.25.25.25,0,0,1,.25.25V288.63A.25.25,0,0,1,251,288.88Z" style="fill: rgb(255, 255, 255); transform-origin: 251px 226.775px;" id="elyrbcpf9q6sd" class="animable"></path><path d="M248.37,288a.25.25,0,0,1-.25-.25v-125a.25.25,0,0,1,.5,0v125A.25.25,0,0,1,248.37,288Z" style="fill: rgb(255, 255, 255); transform-origin: 248.37px 225.25px;" id="elulhdoxukv2j" class="animable"></path><path d="M245.66,287.06a.25.25,0,0,1-.25-.25V160.49a.25.25,0,0,1,.5,0V286.81A.25.25,0,0,1,245.66,287.06Z" style="fill: rgb(255, 255, 255); transform-origin: 245.66px 223.65px;" id="elgfzs065lhy" class="animable"></path><path d="M242.89,286.12a.25.25,0,0,1-.25-.25V158.2a.25.25,0,0,1,.25-.25.25.25,0,0,1,.25.25V285.87A.25.25,0,0,1,242.89,286.12Z" style="fill: rgb(255, 255, 255); transform-origin: 242.89px 222.035px;" id="el668g5gvd31k" class="animable"></path><path d="M240.07,285.17a.25.25,0,0,1-.25-.25V155.86a.25.25,0,0,1,.5,0V284.92A.25.25,0,0,1,240.07,285.17Z" style="fill: rgb(255, 255, 255); transform-origin: 240.07px 220.39px;" id="elw66khtftasa" class="animable"></path><path d="M237.18,284.19a.25.25,0,0,1-.25-.25V153.48a.25.25,0,1,1,.5,0V283.94A.25.25,0,0,1,237.18,284.19Z" style="fill: rgb(255, 255, 255); transform-origin: 237.18px 218.71px;" id="elwaac6j9pjcp" class="animable"></path><path d="M234.22,283.19a.26.26,0,0,1-.25-.25V151a.25.25,0,0,1,.25-.25.25.25,0,0,1,.25.25v131.9A.25.25,0,0,1,234.22,283.19Z" style="fill: rgb(255, 255, 255); transform-origin: 234.222px 216.97px;" id="el0zin4elwkdwp" class="animable"></path><path d="M231.2,282.16a.25.25,0,0,1-.25-.25V148.54a.25.25,0,0,1,.25-.25.25.25,0,0,1,.25.25V281.91A.25.25,0,0,1,231.2,282.16Z" style="fill: rgb(255, 255, 255); transform-origin: 231.2px 215.225px;" id="elc50mjid35ed" class="animable"></path></g></g><path d="M274.83,297.63a1,1,0,0,1-.3-.05l-46.71-15.83a.92.92,0,0,1-.63-.88V146a.93.93,0,0,1,1.52-.72l46.71,38.6a.92.92,0,0,1,.34.72v112.1a.92.92,0,0,1-.39.76A.9.9,0,0,1,274.83,297.63ZM229.05,280.2l44.85,15.2V185L229.05,148Z" style="fill: rgb(64, 123, 255); transform-origin: 251.475px 221.349px;" id="elxbtmd1ffnn" class="animable"></path><path d="M228.12,146.92a.94.94,0,0,1-.91-.71L223.32,130a.93.93,0,1,1,1.81-.43L229,145.77a.93.93,0,0,1-.69,1.12A.76.76,0,0,1,228.12,146.92Z" style="fill: rgb(64, 123, 255); transform-origin: 226.16px 137.887px;" id="el6t5auicrwvt" class="animable"></path><path d="M224.22,293.48a1,1,0,0,1-.29-.05.93.93,0,0,1-.59-1.18l3.89-11.68a.93.93,0,1,1,1.77.59l-3.89,11.68A.94.94,0,0,1,224.22,293.48Z" style="fill: rgb(64, 123, 255); transform-origin: 226.17px 286.706px;" id="ele26z9lu0iar" class="animable"></path><path d="M274.83,185.52a.9.9,0,0,1-.28,0,.94.94,0,0,1-.61-1.17l2.62-8.37a.93.93,0,1,1,1.78.56l-2.62,8.37A.94.94,0,0,1,274.83,185.52Z" style="fill: rgb(64, 123, 255); transform-origin: 276.141px 180.428px;" id="elx0vrkfz80xf" class="animable"></path><path d="M278.19,168.46h0a1.6,1.6,0,0,1,1.41,1.74V410.47a.66.66,0,0,1-.58.71h-1.66a.66.66,0,0,1-.58-.71V170.2A1.6,1.6,0,0,1,278.19,168.46Z" style="fill: rgb(64, 123, 255); transform-origin: 278.19px 289.82px;" id="elzv7horfwipr" class="animable"></path><path d="M277.45,309.05a.94.94,0,0,1-.91-.73l-2.62-11.42a.93.93,0,0,1,1.82-.41l2.62,11.42a.93.93,0,0,1-.7,1.11A.76.76,0,0,1,277.45,309.05Z" style="fill: rgb(64, 123, 255); transform-origin: 276.14px 302.406px;" id="elkejleoqgeb" class="animable"></path></g><g id="freepik--Ball--inject-61" class="animable" style="transform-origin: 181.49px 89.42px;"><circle cx="181.49" cy="89.42" r="19.42" style="fill: rgb(64, 123, 255); transform-origin: 181.49px 89.42px;" id="elp1rnpn7zbds" class="animable"></circle><g id="eldxfxtmza34"><path d="M164.55,81.84a18.56,18.56,0,0,1,15.59-10.93,44.36,44.36,0,0,1,.85,5.18l-.66.13-.33.07-.45.09-.86.19h-.05l0,0c-.89.19-1.77.42-2.67.68h0l0,0a6.58,6.58,0,0,0-.89.26h0l-.33.09-1,.32-.61.2c-.16.06-.34.11-.51.18l-.07,0c-.29.09-.61.2-1,.34l-.76.29-.2.08-.46.19c-.29.1-.58.22-.87.34l-.18.09-.26.1-.38.17c-.42.18-.79.35-1.17.53s-.91.43-1.49.72h0l-.14.07C165.26,81.46,164.91,81.65,164.55,81.84Z" style="fill: rgb(255, 255, 255); opacity: 0.6; transform-origin: 172.77px 76.375px;" class="animable"></path></g><g id="el4yb7tylm3v7"><path d="M165,98a18.1,18.1,0,0,1-1.92-5.93l.09-.06,1.27-.86.05,0,0,0,1.26-.78.76-.44.18-.11.15-.09h0l.08-.05.43-.24.31-.18.26-.14.21-.11,1-.51.44-.21.18-.09.78-.37c.36-.18.71-.33,1.07-.48l.34-.15q.47-.21.93-.39l.09,0,.11,0,.46-.18,1.12-.43.88-.3.45-.15.17-.06.94-.3h.1l0,0,.29-.09.71-.21.43-.12.11,0c.66-.18,1.38-.36,2.18-.53-.09,1-.22,2-.37,2.91-.18,1.15-.41,2.3-.7,3.45-1.32.37-2.59.78-3.76,1.23A43.44,43.44,0,0,0,165,98Z" style="fill: rgb(255, 255, 255); opacity: 0.6; transform-origin: 171.995px 91.22px;" class="animable"></path></g><path d="M163,90.9c0-.5-.06-1-.06-1.48a18.19,18.19,0,0,1,1-6.06l.49-.27.31-.17.12-.07c.42-.22.83-.44,1.25-.64l0,0,.09-.07-.09.07.42-.21c.4-.2.74-.36,1.07-.5s.73-.35,1.12-.51a.69.69,0,0,1,.13-.06l.15-.07.42-.18.13-.06c.28-.12.56-.24.86-.34l.45-.18.08,0c.24-.1.51-.21.79-.3l.07,0,1-.37.49-.16L174,79c.33-.12.65-.22,1-.32l.09,0h0l.08,0h.09l0,0,.81-.24h.05c.89-.25,1.77-.48,2.69-.7h.06l.76-.17.87-.19.55-.1a41.85,41.85,0,0,1,0,6c-.94.2-1.76.4-2.48.59l-.11,0-.12,0c-.36.1-.74.2-1.1.32l-.21.06-.1,0h0c-.36.1-.7.21-1.07.34l-.59.19c-.31.1-.61.21-.92.33l-1.12.42-.45.17-.13,0-.11.05-.95.4-.49.21c-.32.14-.64.28-.94.43s-.67.31-1,.48l-.46.22-.31.16-.66.35-.26.14-.21.11-.21.11-.53.31h-.06l-.07.06,0,0L166,89l-.76.46-.33.21-.35.21-.65.41Z" style="fill: rgb(255, 255, 255); transform-origin: 172.049px 84.09px;" id="elqkpzny249kh" class="animable"></path><g id="elsa175m731x"><path d="M181.49,108a18.6,18.6,0,0,1-15.93-9,44.25,44.25,0,0,1,4.14-2.8l.17.19c.06.08.13.15.21.24l.13.14.3.34.08.07a8.84,8.84,0,0,0,.72.77l.05.06a.62.62,0,0,0,.12.12c.2.22.44.46.68.71l.25.25c.66.65,1.37,1.33,2.12,2l.1.09h0c.3.28.63.57,1,.87l.64.54.09.08.07,0,.79.65.11.08,1.16.9.13.09.08.06c.27.2.54.4.81.58l.24.17c.26.2.48.35.66.47l0,0,.1.06c.42.29.85.58,1.29.86l.09.06c.4.26.81.52,1.21.76l.11.07.57.34A17.62,17.62,0,0,1,181.49,108Z" style="fill: rgb(255, 255, 255); opacity: 0.6; transform-origin: 174.67px 102.1px;" class="animable"></path></g><g id="elnocyai26ksc"><path d="M186.83,91.78a43.65,43.65,0,0,1-5.11-4.69c.18-1.13.32-2.29.4-3.45a44,44,0,0,0,0-7.17,45.34,45.34,0,0,0-.87-5.61h.28a18.58,18.58,0,0,1,5.94,1l0,.13c0,.21.07.41.1.62s.08.53.12.8l.11.81c0,.2.05.39.07.59s.06.6.09.9l.11,1.33c0,.24,0,.48,0,.73l0,.83c0,.22,0,.44,0,.66s0,.55,0,.82v.76c0,.22,0,.44,0,.66s0,.61,0,.92l0,.58c0,.24,0,.48,0,.72,0,.42-.07.85-.11,1.27l0,.34c0,.21,0,.42-.06.63s-.08.65-.13,1l-.05.31,0,.34c0,.19,0,.39-.08.59-.07.43-.15.86-.23,1.29l-.08.41-.09.51C187.05,90.84,186.94,91.31,186.83,91.78Z" style="fill: rgb(255, 255, 255); opacity: 0.6; transform-origin: 184.66px 81.32px;" class="animable"></path></g><path d="M184.86,107.23h0l-1.06-.62-.1-.07c-.41-.24-.81-.5-1.2-.75l-.09-.06c-.42-.27-.84-.56-1.27-.85l-.24-.17c-.2-.13-.39-.27-.58-.41s-.64-.45-1-.68l-.09-.07-.12-.09-1.13-.88-.33-.26-.63-.51,0,0h0l0,0-.38-.32-.27-.22c-.37-.32-.73-.63-1.07-.94-.67-.59-1.37-1.26-2.09-2l-.16-.16c-.26-.25-.51-.51-.76-.78l-.1-.1c-.28-.28-.53-.55-.77-.82s-.23-.24-.33-.36l0-.06-.07,0-.31-.35A42.47,42.47,0,0,1,176.24,93a50.33,50.33,0,0,0,14.39,10.64v0l.13,0c.54.27,1.08.53,1.63.77a18.5,18.5,0,0,1-7,3.13Z" style="fill: rgb(255, 255, 255); transform-origin: 181.55px 100.27px;" id="elpwe0vbp0yz" class="animable"></path><path d="M193,95.8a42.38,42.38,0,0,1-5.26-3.33c.14-.54.3-1.22.43-1.9,0-.18.07-.35.1-.53l.12-.64c.07-.36.14-.72.2-1.09l.18-1.31c0-.32.09-.64.12-1l.06-.65.07-.82c0-.26,0-.53.07-.8s0-.45,0-.68l0-.89,0-.71V79.21l0-.71,0-.44,0-.56c0-.18,0-.37,0-.55s0-.52-.07-.78l-.07-.82-.06-.67-.09-.69c0-.15-.12-.83-.12-.83,0-.25-.06-.49-.1-.74,0,0,0-.11,0-.16A18.73,18.73,0,0,1,195,76.7c0,.27,0,.49,0,.73s0,.64,0,1,0,.36,0,.53v.22c0,.3,0,.61,0,.93s0,.64,0,1,0,.61,0,.9l0,.88,0,.42L195,84.41a.78.78,0,0,0,0,.13c0,.12,0,.27,0,.42l-.06.71-.06.61v.16l-.12,1c0,.33-.08.65-.13,1s-.11.68-.16,1c-.11.7-.22,1.36-.36,2-.06.35-.13.67-.2,1s-.12.56-.2.84a4.68,4.68,0,0,1-.11.47l0,0v.14c-.11.43-.22.86-.33,1.26C193.17,95.2,193.05,95.65,193,95.8Z" style="fill: rgb(255, 255, 255); transform-origin: 191.37px 84.03px;" id="elhzl7oq3jfc" class="animable"></path><g id="elfcf37xf9f74"><path d="M193.34,103.71c-.67-.3-1.38-.62-2.09-1l-.06-.07h-.08a49.43,49.43,0,0,1-13.8-10.11c1.05-.38,2.12-.72,3.18-1h.15l.07-.11.1-.1,0,0a.34.34,0,0,0,.07-.15c.23-.88.43-1.81.6-2.78a42.61,42.61,0,0,0,5.34,4.74A43.53,43.53,0,0,0,193.08,97a45.76,45.76,0,0,0,4.32,2A18.39,18.39,0,0,1,193.34,103.71Z" style="fill: rgb(255, 255, 255); opacity: 0.6; transform-origin: 187.355px 96.05px;" class="animable"></path></g><g id="elbi09ma3k9u"><path d="M197.92,98.05c-1.33-.51-2.66-1.1-4-1.75.08-.28.16-.55.23-.82l.17-.64.15-.62,0,0v-.12c.06-.22.1-.39.13-.56s.13-.56.18-.83l0-.08c.07-.32.14-.63.19-.95.13-.6.26-1.27.37-2,.07-.41.12-.73.17-1.06s.09-.67.13-1,.09-.72.12-1l.08-.74L196,85l0-.35v-.11c.06-.55.09-1.08.1-1.69,0-.29,0-.59,0-.89v-.2c0-.24,0-.47,0-.7,0-.76,0-1.38,0-2v-.2c0-.2,0-.39,0-.6V78a18.58,18.58,0,0,1,1.78,20Z" style="fill: rgb(255, 255, 255); opacity: 0.6; transform-origin: 196.959px 88.025px;" class="animable"></path></g></g><defs>     <filter id="active" height="200%">         <feMorphology in="SourceAlpha" result="DILATED" operator="dilate" radius="2"></feMorphology>                <feFlood flood-color="#32DFEC" flood-opacity="1" result="PINK"></feFlood>        <feComposite in="PINK" in2="DILATED" operator="in" result="OUTLINE"></feComposite>        <feMerge>            <feMergeNode in="OUTLINE"></feMergeNode>            <feMergeNode in="SourceGraphic"></feMergeNode>        </feMerge>    </filter>    <filter id="hover" height="200%">        <feMorphology in="SourceAlpha" result="DILATED" operator="dilate" radius="2"></feMorphology>                <feFlood flood-color="#ff0000" flood-opacity="0.5" result="PINK"></feFlood>        <feComposite in="PINK" in2="DILATED" operator="in" result="OUTLINE"></feComposite>        <feMerge>            <feMergeNode in="OUTLINE"></feMergeNode>            <feMergeNode in="SourceGraphic"></feMergeNode>        </feMerge>            <feColorMatrix type="matrix" values="0   0   0   0   0                0   1   0   0   0                0   0   0   0   0                0   0   0   1   0 "></feColorMatrix>    </filter></defs></svg>