<svg class="animated" id="freepik_stories-beach-volleyball" xmlns="http://www.w3.org/2000/svg" xmlns:xlink="http://www.w3.org/1999/xlink" viewBox="0 0 500 500" version="1.1" xmlns:svgjs="http://svgjs.com/svgjs"><style>svg#freepik_stories-beach-volleyball:not(.animated) .animable {opacity: 0;}svg#freepik_stories-beach-volleyball.animated #freepik--character-1--inject-15 {animation: 1.5s Infinite  linear wind;animation-delay: 0s;}svg#freepik_stories-beach-volleyball.animated #freepik--character-2--inject-15 {animation: 1.5s Infinite  linear floating;animation-delay: 0s;}            @keyframes wind {                0% {                    transform: rotate( 0deg );                }                25% {                    transform: rotate( 1deg );                }                75% {                    transform: rotate( -1deg );                }            }                    @keyframes floating {                0% {                    opacity: 1;                    transform: translateY(0px);                }                50% {                    transform: translateY(-10px);                }                100% {                    opacity: 1;                    transform: translateY(0px);                }            }        </style><g id="freepik--background-simple--inject-15" class="animable" style="transform-origin: 253.813px 244.969px;"><path d="M76.41,368.65S123.14,427.82,203,430.23s151.26-47.37,210.17-86.17S491.39,240.37,462,186.84,379.19,151.63,315.08,114,239.6,56.6,165.28,60,29.43,142.76,32.15,231.72,76.41,368.65,76.41,368.65Z" style="fill: rgb(0, 41, 255); transform-origin: 253.813px 244.969px;" id="elcphxmayd0q7" class="animable"></path><g id="elnbvm8z98hn"><path d="M76.41,368.65S123.14,427.82,203,430.23s151.26-47.37,210.17-86.17S491.39,240.37,462,186.84,379.19,151.63,315.08,114,239.6,56.6,165.28,60,29.43,142.76,32.15,231.72,76.41,368.65,76.41,368.65Z" style="fill: rgb(255, 255, 255); opacity: 0.7; transform-origin: 253.813px 244.969px;" class="animable"></path></g></g><g id="freepik--Clouds--inject-15" class="animable" style="transform-origin: 237.598px 104.6px;"><path d="M251.19,51.31a22.83,22.83,0,0,0-5.43,10.24,13.53,13.53,0,0,0-17.55-3.72,26.52,26.52,0,0,0-52.35-3.19A17.26,17.26,0,0,0,152.34,54" style="fill: none; stroke: rgb(38, 50, 56); stroke-miterlimit: 10; transform-origin: 201.765px 47.6059px;" id="el4gvoxsn97ct" class="animable"></path><path d="M323.47,23.34a35,35,0,0,0-39.62,27.18,22.71,22.71,0,0,0-27.67-3.28" style="fill: none; stroke: rgb(38, 50, 56); stroke-miterlimit: 10; transform-origin: 289.825px 36.7196px;" id="eloythfs5ayph" class="animable"></path><path d="M343.13,33.54a35,35,0,0,0-8.43-6.4" style="fill: none; stroke: rgb(38, 50, 56); stroke-miterlimit: 10; transform-origin: 338.915px 30.34px;" id="el6m0xfhd34m" class="animable"></path><path d="M330.53,67.58h64.64a11.34,11.34,0,0,0-16.62-3.13,17.88,17.88,0,0,0-25.69-9.73,34.9,34.9,0,0,0-6.64-17.54" style="fill: none; stroke: rgb(38, 50, 56); stroke-miterlimit: 10; transform-origin: 362.85px 52.38px;" id="ellfrxqd6hpi" class="animable"></path><path d="M149.64,57a17.17,17.17,0,0,0-3.14,9.93c0,.21,0,.42,0,.64H317.81" style="fill: none; stroke: rgb(38, 50, 56); stroke-miterlimit: 10; transform-origin: 232.155px 62.285px;" id="elwf1u6boznsc" class="animable"></path><path d="M379,79.09a15.55,15.55,0,0,0-25.3,8.56,10.11,10.11,0,0,0-16.94,4.9A6,6,0,0,0,329,90.9a11.8,11.8,0,0,0-23.29-1.42A7.67,7.67,0,0,0,292.61,95c0,.1,0,.19,0,.29H403.2a5,5,0,0,0-7.39-1.4,7.94,7.94,0,0,0-11.42-4.32,16.09,16.09,0,0,0-.7-3.42" style="fill: none; stroke: rgb(38, 50, 56); stroke-miterlimit: 10; transform-origin: 347.905px 85.328px;" id="el4lz431kdxr9" class="animable"></path><path d="M158.35,170.12a15.56,15.56,0,0,0-25.29,8.57,10.11,10.11,0,0,0-16.94,4.9,6,6,0,0,0-7.8-1.66A11.8,11.8,0,0,0,85,180.52a7.6,7.6,0,0,0-5.38-2.21A7.68,7.68,0,0,0,72,186a2.64,2.64,0,0,0,0,.28H182.57a5,5,0,0,0-7.39-1.39,8,8,0,0,0-11.43-4.33,14.86,14.86,0,0,0-.7-3.41" style="fill: none; stroke: rgb(38, 50, 56); stroke-miterlimit: 10; transform-origin: 127.283px 176.347px;" id="elkses8n2h3z" class="animable"></path></g><g id="freepik--Floor--inject-15" class="animable" style="transform-origin: 236.748px 443.489px;"><path d="M179.5,443.22c5,1.5,19,4,9.5,4s-22.5,2-39.5,2.5-13.5.5-31.5-2.5-30,1-35.5-1,17.5-2,27.5-5,20-8.5,37-2.5,22.5,2,22.5,2S174.5,441.72,179.5,443.22Zm80.5,17.5s-23.5-8.5-33.5-7-14.5,6-22.5,7a166.71,166.71,0,0,1-17.5,1s15.5,2.5,24,4,23,0,34.5-1,20.5-1,22-1S260,460.72,260,460.72Zm-178,6c2.5.5,33.5,1.5,45,1s36-1.5,31.5-2.5-24.5-5-38.5-6.5-41,5-41,5C75,466.72,79.5,466.22,82,466.72Zm220-10.5s-20.5-3-32.5-3.5a70.44,70.44,0,0,0-22.5,3s20,3.5,27,3.5,19.5-1,25-.5,11,2,16,1S313.5,453.22,302,456.22Zm12.5-12s24.5.5,38,1,13.5,0-6-3S309,442.22,314.5,444.22Zm-89-16.5s-37.5,0-34,2,19.5,3,28.5,2.5S240,428.72,225.5,427.72Zm35,12.5s-16-5-23.5-4-15.5,3.5-25.5,5-10.5,1.5-8,1.5,17.5-1,31.5-1S262.5,446.22,260.5,440.22Zm116,15s-18.5,4.5-30,6.5-38,.5-34,3.5,19-1.5,43-.5,35.5-2,31-4S383.5,457.22,376.5,455.22Zm-257-29c-8,2.5-26.5,7-44,11s15.5,2.5,28.5,1,30.5-5.5,37-8-5-9.5-5-9.5C126.5,419.22,127.5,423.72,119.5,426.22Z" style="fill: rgb(0, 41, 255); transform-origin: 228.977px 444.139px;" id="elcfyakhbp3h8" class="animable"></path><g id="eltn921v6vytc"><path d="M179.5,443.22c5,1.5,19,4,9.5,4s-22.5,2-39.5,2.5-13.5.5-31.5-2.5-30,1-35.5-1,17.5-2,27.5-5,20-8.5,37-2.5,22.5,2,22.5,2S174.5,441.72,179.5,443.22Zm80.5,17.5s-23.5-8.5-33.5-7-14.5,6-22.5,7a166.71,166.71,0,0,1-17.5,1s15.5,2.5,24,4,23,0,34.5-1,20.5-1,22-1S260,460.72,260,460.72Zm-178,6c2.5.5,33.5,1.5,45,1s36-1.5,31.5-2.5-24.5-5-38.5-6.5-41,5-41,5C75,466.72,79.5,466.22,82,466.72Zm220-10.5s-20.5-3-32.5-3.5a70.44,70.44,0,0,0-22.5,3s20,3.5,27,3.5,19.5-1,25-.5,11,2,16,1S313.5,453.22,302,456.22Zm12.5-12s24.5.5,38,1,13.5,0-6-3S309,442.22,314.5,444.22Zm-89-16.5s-37.5,0-34,2,19.5,3,28.5,2.5S240,428.72,225.5,427.72Zm35,12.5s-16-5-23.5-4-15.5,3.5-25.5,5-10.5,1.5-8,1.5,17.5-1,31.5-1S262.5,446.22,260.5,440.22Zm116,15s-18.5,4.5-30,6.5-38,.5-34,3.5,19-1.5,43-.5,35.5-2,31-4S383.5,457.22,376.5,455.22Zm-257-29c-8,2.5-26.5,7-44,11s15.5,2.5,28.5,1,30.5-5.5,37-8-5-9.5-5-9.5C126.5,419.22,127.5,423.72,119.5,426.22Z" style="fill: rgb(255, 255, 255); opacity: 0.5; transform-origin: 228.977px 444.139px;" class="animable"></path></g><path d="M143.5,443.73s24.56-3.76,38.14-1.88,20.3,3.95,33.23,3.95h18.61" style="fill: none; stroke: rgb(38, 50, 56); stroke-miterlimit: 10; transform-origin: 188.49px 443.562px;" id="elnkuy8jvrwpm" class="animable"></path><path d="M245.9,451s6.72-1.55,24.3-1.55S293,451,303.3,451.49s33.61.52,33.61.52" style="fill: none; stroke: rgb(38, 50, 56); stroke-miterlimit: 10; transform-origin: 291.405px 450.73px;" id="el8n5jh8j4ix5" class="animable"></path><path d="M203,458.21s19.14-9.82,37.24-3.62,42.92,3.62,44.47,3.62" style="fill: none; stroke: rgb(38, 50, 56); stroke-miterlimit: 10; transform-origin: 243.855px 455.64px;" id="ele8lfoas7lr" class="animable"></path><path d="M261.93,434.94s-17.66-3.26-21.25-2-8.75.42-16.5,2a102.73,102.73,0,0,1-17.07,1.55" style="fill: none; stroke: rgb(38, 50, 56); stroke-miterlimit: 10; transform-origin: 234.52px 434.57px;" id="elnx8maccf2t" class="animable"></path><path d="M288,433.72s21-.5,34-4.5,35.5,7,43,8,23,2.5,23,2.5" style="fill: none; stroke: rgb(38, 50, 56); stroke-miterlimit: 10; transform-origin: 338px 434.034px;" id="elpu6crcs4v1" class="animable"></path><path d="M168,424.22a129.06,129.06,0,0,0-27.5-5c-15-1-27.5,6-36.5,7s-25.5,1-27,1" style="fill: none; stroke: rgb(38, 50, 56); stroke-miterlimit: 10; transform-origin: 122.5px 423.171px;" id="el3r809i58uyc" class="animable"></path><path d="M100,456.72s25.5-2.5,42-2,28.5,5,32.5,5" style="fill: none; stroke: rgb(38, 50, 56); stroke-miterlimit: 10; transform-origin: 137.25px 457.187px;" id="eltz75l7rpvw" class="animable"></path><path d="M342,460.22s20.5-6.5,27.5-7,24,3.5,33.5,3.5" style="fill: none; stroke: rgb(38, 50, 56); stroke-miterlimit: 10; transform-origin: 372.5px 456.698px;" id="el0uja6x7h1m4q" class="animable"></path></g><g id="freepik--character-1--inject-15" class="animable" style="transform-origin: 186.667px 324.416px;"><path d="M166.91,325.57a69.36,69.36,0,0,0-7,25.06c-1.32,14.72,3.08,31.87,2.64,34.51s-1.1,10.55,1.32,17.14,13.85,16.49,14.73,19.57,1.76,6.81.66,9-6.36,8.94-7.18,10.08c-.39.56,0,0,9.6.91,2.19.21,2.63-5.27,4.17-8.79s5.5-5.5,4.62-8.57-5.28-5.06-7-10.55-1.53-14.95-3.07-22.21a44.91,44.91,0,0,0-4.18-11.87s3.08-20.88,5.5-25.06,6.81-14.51,7.91-20.88-5.72-10.11-12.31-11S166.91,325.57,166.91,325.57Z" style="fill: rgb(178, 178, 178); transform-origin: 175.129px 382.306px;" id="eladty5to073q" class="animable"></path><g style="clip-path: url(&quot;#freepik--clip-path--inject-15&quot;); transform-origin: 175.149px 383.483px;" id="elg29xxio44vd" class="animable"><g id="elybdh56v90lc"><path d="M183.39,413.94a40.24,40.24,0,0,1-1.34-7.61c-4.68-3.34-10.91-9.89-10.67-13.22.26-3.67,1.57-7.86,1.57-9.43s-5.5,3.14-8.65-2.62-4.19-32.74-1-43,8.12-11,8.12-11l-3.56-2.22a6.57,6.57,0,0,0-.91.69,69.36,69.36,0,0,0-7,25.06c-1.32,14.72,3.08,31.87,2.64,34.51s-1.1,10.55,1.32,17.14,13.85,16.49,14.73,19.57,1.76,6.81.66,9A123.22,123.22,0,0,1,172,441.41c-.88,1.1,7.48.66,9.68.44s2.63-5.27,4.17-8.79,5.5-5.5,4.62-8.57S185.15,419.43,183.39,413.94Z" style="opacity: 0.3; transform-origin: 175.149px 383.483px;" class="animable"></path></g></g><path d="M166.91,325.57a69.36,69.36,0,0,0-7,25.06c-1.32,14.72,3.08,31.87,2.64,34.51s-1.1,10.55,1.32,17.14,13.85,16.49,14.73,19.57,1.76,6.81.66,9-6.36,8.94-7.18,10.08c-.39.56,0,0,9.6.91,2.19.21,2.63-5.27,4.17-8.79s5.5-5.5,4.62-8.57-5.28-5.06-7-10.55-1.53-14.95-3.07-22.21a44.91,44.91,0,0,0-4.18-11.87s3.08-20.88,5.5-25.06,6.81-14.51,7.91-20.88-5.72-10.11-12.31-11S166.91,325.57,166.91,325.57Z" style="fill: none; stroke: rgb(38, 50, 56); stroke-linecap: round; stroke-linejoin: round; transform-origin: 175.129px 382.306px;" id="elkhcpttx31qh" class="animable"></path><path d="M195.26,335s9.68,25.94,15,34.07,7.92,10.77,7.92,10.77a27.1,27.1,0,0,0,0,13.63c2,7,7,20.89,8.35,24s3.08,6.38,3.3,9.67a39.69,39.69,0,0,0,1.1,6.6s7.07.15,10.33-1.1c1.28-.49-7.26-10.55-8.14-15.61s2.86-26.82.88-32.09-5-12.09-5-12.09-3.3-29.68-6.82-38.69-4.83-11.43-5.27-12.53-4.62-.88-10.77,2S195.26,335,195.26,335Z" style="fill: rgb(178, 178, 178); transform-origin: 218.325px 377.382px;" id="el8jaour534ou" class="animable"></path><g style="clip-path: url(&quot;#freepik--clip-path-2--inject-15&quot;); transform-origin: 218.22px 382.14px;" id="elyf4lc67xmg" class="animable"><g id="elsgykextr8rj"><path d="M233.93,401c-3.29-6.45-7.21-13.58-7.54-15.74-.53-3.41,2.62-8.91-.26-8.38s-6.29-1.05-10-10.22-13.36-36.15-13.36-36.15l-5.09.71a37.91,37.91,0,0,0-2.46,3.81s9.68,25.94,15,34.07,7.92,10.77,7.92,10.77a27.1,27.1,0,0,0,0,13.63c2,7,7,20.89,8.35,24s3.08,6.38,3.3,9.67a39.69,39.69,0,0,0,1.1,6.6l10.33-1.1S234,422.07,233.07,417C232.63,414.48,233.35,407.74,233.93,401Z" style="opacity: 0.3; transform-origin: 218.22px 382.14px;" class="animable"></path></g></g><path d="M195.26,335s9.68,25.94,15,34.07,7.92,10.77,7.92,10.77a27.1,27.1,0,0,0,0,13.63c2,7,7,20.89,8.35,24s3.08,6.38,3.3,9.67a39.69,39.69,0,0,0,1.1,6.6s7.07.15,10.33-1.1c1.28-.49-7.26-10.55-8.14-15.61s2.86-26.82.88-32.09-5-12.09-5-12.09-3.3-29.68-6.82-38.69-4.83-11.43-5.27-12.53-4.62-.88-10.77,2S195.26,335,195.26,335Z" style="fill: none; stroke: rgb(38, 50, 56); stroke-linecap: round; stroke-linejoin: round; transform-origin: 218.325px 377.382px;" id="eldv1lxtz4eu" class="animable"></path><path d="M171.08,307.32l-5.27,20.22s10.33.66,15.17,4.18,7.69,5.28,7.69,5.28,5.28.44,7,0,4.84-4.84,10.34-8.58a37.35,37.35,0,0,1,11.87-5.05l-6.38-18s-11.87,4-22.2,3.3S171.08,307.32,171.08,307.32Z" style="fill: rgb(0, 41, 255); transform-origin: 191.845px 321.283px;" id="elz0xp7kdfnhp" class="animable"></path><g style="clip-path: url(&quot;#freepik--clip-path-3--inject-15&quot;); transform-origin: 188.689px 322.258px;" id="el0v8p6u8j6ckd" class="animable"><g id="el5ruizg3yu6q"><path d="M211.48,325.49c.13-.25.05-.39-.33-.39-2.51,0-6.38,2.74-10.94,5.7s-7.75,1.82-10.48-.91-5.25-1.37-8.21-2.28-10.94-5-10.94-7.07,7.75,2.28,9.8,1.6-7.75-3.65-6.15-5,13.45,0,17.55-1.13-14.59-1.37-16.87-2.28,18-.46,18-.46L179,307.93c-4.82-.35-7.89-.61-7.89-.61l-5.27,20.22s10.33.66,15.17,4.18,7.69,5.28,7.69,5.28,5.28.44,7,0,4.84-4.84,10.34-8.58A31.62,31.62,0,0,1,211.48,325.49Z" style="opacity: 0.3; transform-origin: 188.689px 322.258px;" class="animable"></path></g></g><path d="M171.08,307.32l-5.27,20.22s10.33.66,15.17,4.18,7.69,5.28,7.69,5.28,5.28.44,7,0,4.84-4.84,10.34-8.58a37.35,37.35,0,0,1,11.87-5.05l-6.38-18s-11.87,4-22.2,3.3S171.08,307.32,171.08,307.32Z" style="fill: none; stroke: rgb(38, 50, 56); stroke-linecap: round; stroke-linejoin: round; transform-origin: 191.845px 321.283px;" id="el3zth2axhm6e" class="animable"></path><path d="M172.62,233l2.2,13.85s-8.35,6.81-13.41,9-11.21,2.64-14.07,7.48a34.11,34.11,0,0,0-3.73,10.77s-5.72,8.57-8.36,14.95-.88,10.55,5.06,9.23,20.88-22.42,20.88-22.42,8.58,18.46,8.58,22,.43,9,1.53,12.09,22,5.05,30.78,1.54,9.45-5.28,9.45-5.28-2.2-17.14-.88-20.22,5.06-19.79,5.06-19.79,9.89,11.87,11.43,15,.22,11.65,1.1,18.91,2.11,17,1.93,17.69-4.35,4.07-4.57,6.27,1.32,4.83,1.54,5.71,2.42.22,3.52-.22,5.71-.44,6.37-2.42,1.1-2.19,1.1-4.83a35.43,35.43,0,0,0-1.27-7.15s3.69-24.95,2.81-32.42-3.08-9.67-4.84-13-7-11.65-8.79-14.07a16.88,16.88,0,0,0-9-6.59c-5.06-1.76-6.7-.34-12.38-1.34a81.26,81.26,0,0,1-13.36-3.93l-.86-11Z" style="fill: rgb(178, 178, 178); transform-origin: 186.931px 281.512px;" id="elzx7y3flr24k" class="animable"></path><g style="clip-path: url(&quot;#freepik--clip-path-4--inject-15&quot;); transform-origin: 185.846px 281.522px;" id="elb8zoisoa7ql" class="animable"><g id="eluk3rxqkwcm"><path d="M190.43,232.8l-17.81.22,2.2,13.85s-8.35,6.81-13.41,9-11.21,2.64-14.07,7.48a34.11,34.11,0,0,0-3.73,10.77s-5.72,8.57-8.36,14.95c-2.57,6.22-.95,10.33,4.65,9.3-1.37-4.11-2.51-8.79-.74-11.89,3.14-5.5,12.05-8.64,14.14-10.47s-5-.53-5-2.36.78-7.6,3.4-11.26,11.53-5,18.08-8.13,7.59-8.12,7.59-8.12.79.53,7.34-1a15.93,15.93,0,0,0,6.41-3Z" style="opacity: 0.3; transform-origin: 162.591px 265.664px;" class="animable"></path></g><g id="ele38p843taa"><path d="M198.88,311.9c-2.09.27-7.86-.52-11.26-.52s-8.91-1.31-10-5.5,1.58-17.55,1.84-19.65S173,286,169.28,282s-6-9.43-6-10.74-2.07,4.59-2.07,4.59,8.58,18.46,8.58,22,.43,9,1.53,12.09c.77,2.16,11.26,3.77,20.5,3.33C195.89,312.55,200.24,311.73,198.88,311.9Z" style="opacity: 0.3; transform-origin: 180.172px 292.206px;" class="animable"></path></g><g id="elkc169ctkmwf"><path d="M227.43,324.48c-.78-1.05,3.67-6.81,4.72-8.38s.79-25.94.79-30.65-1.05-7.08-4.72-10.22-9.69-12.83-11.53-16-1,7-1,7,9.89,11.87,11.43,15,.22,11.65,1.1,18.91,2.11,17,1.93,17.69-4.35,4.07-4.57,6.27,1.32,4.83,1.54,5.71,2.42.22,3.52-.22,5.71-.44,6.37-2.42c.24-.72.45-1.2.62-1.66C236.14,322.67,228.16,325.44,227.43,324.48Z" style="opacity: 0.3; transform-origin: 226.564px 294.431px;" class="animable"></path></g><g id="elztkttkmhrim"><path d="M193.38,279.42a60.77,60.77,0,0,0,5,3.67c2.09,1.31,4.45.79,1.57-3.67s-7.86-9.17-8.38-6S193.38,279.42,193.38,279.42Z" style="opacity: 0.3; transform-origin: 196.391px 278.051px;" class="animable"></path></g><g id="elrs3j07h6wkq"><path d="M202.29,251.13s-9.43,4.45-10.22,4.45-1.83-2.62-.78-3.14S202.29,251.13,202.29,251.13Z" style="opacity: 0.3; transform-origin: 196.568px 253.355px;" class="animable"></path></g></g><path d="M172.62,233l2.2,13.85s-8.35,6.81-13.41,9-11.21,2.64-14.07,7.48a34.11,34.11,0,0,0-3.73,10.77s-5.72,8.57-8.36,14.95-.88,10.55,5.06,9.23,20.88-22.42,20.88-22.42,8.58,18.46,8.58,22,.43,9,1.53,12.09,22,5.05,30.78,1.54,9.45-5.28,9.45-5.28-2.2-17.14-.88-20.22,5.06-19.79,5.06-19.79,9.89,11.87,11.43,15,.22,11.65,1.1,18.91,2.11,17,1.93,17.69-4.35,4.07-4.57,6.27,1.32,4.83,1.54,5.71,2.42.22,3.52-.22,5.71-.44,6.37-2.42,1.1-2.19,1.1-4.83a35.43,35.43,0,0,0-1.27-7.15s3.69-24.95,2.81-32.42-3.08-9.67-4.84-13-7-11.65-8.79-14.07a16.88,16.88,0,0,0-9-6.59c-5.06-1.76-6.7-.34-12.38-1.34a81.26,81.26,0,0,1-13.36-3.93l-.86-11Z" style="fill: none; stroke: rgb(38, 50, 56); stroke-linecap: round; stroke-linejoin: round; transform-origin: 186.931px 281.512px;" id="el55gepl1csd2" class="animable"></path><path d="M187.13,291.27s4.62.88,5.06,2,1.1,4.62.22,6.38-2.42,1.54-2.86,0a37.45,37.45,0,0,0-1.54-4Z" style="fill: rgb(178, 178, 178); stroke: rgb(38, 50, 56); stroke-linecap: round; stroke-linejoin: round; transform-origin: 189.987px 296.079px;" id="eleejww0u9j6f" class="animable"></path><path d="M142.73,290.61s14.94,4.18,23.3,4.18,10.77-.88,11.65-1.32,5.71-5.71,6.81-5.05,6.38,5.49,5.94,7-3.3,4.84-5.5,5.72-5.49-1.1-6.15-1.32-6.82,2-18.25,3.07-20.88,3.3-25.28,1.1-3.29-5.93-2.86-8.57a16.46,16.46,0,0,1,2.42-5.5" style="fill: rgb(178, 178, 178); transform-origin: 161.2px 296.644px;" id="elwavm557w6c" class="animable"></path><g style="clip-path: url(&quot;#freepik--clip-path-5--inject-15&quot;); transform-origin: 158.998px 296.692px;" id="elr18uvh924r" class="animable"><g id="el1bnkoyszy36"><path d="M165.88,298.54c-7.86,0-19.65-1-24.1-2.35-3.85-1.13-4.37-5-4.44-6l-2.53-.21a16.46,16.46,0,0,0-2.42,5.5c-.43,2.64-1.53,6.37,2.86,8.57s13.85,0,25.28-1.1,17.59-3.29,18.25-3.07,3.59,2,5.77,1.43c-1.55-.88-4-2.44-4-3.52s3.42-4.72,5.5-8.09a13.61,13.61,0,0,0-1.56-1.25c-1.1-.66-5.93,4.61-6.81,5.05C175.34,297.83,173.73,298.54,165.88,298.54Z" style="opacity: 0.3; transform-origin: 158.998px 296.692px;" class="animable"></path></g></g><path d="M142.73,290.61s14.94,4.18,23.3,4.18,10.77-.88,11.65-1.32,5.71-5.71,6.81-5.05,6.38,5.49,5.94,7-3.3,4.84-5.5,5.72-5.49-1.1-6.15-1.32-6.82,2-18.25,3.07-20.88,3.3-25.28,1.1-3.29-5.93-2.86-8.57a16.46,16.46,0,0,1,2.42-5.5" style="fill: none; stroke: rgb(38, 50, 56); stroke-linecap: round; stroke-linejoin: round; transform-origin: 161.2px 296.644px;" id="elspg27zj453h" class="animable"></path><path d="M169.11,225.33s-1.76.22-1.54,3.51,3.73,4.62,3.73,4.62,3.74,3.74,6.16,6.59,5,3.74,9.23,3.3,5.72-1.32,6.6-6.37a30.74,30.74,0,0,0,.66-7.26s1.53.22,1.31-3.73-1.75-4.18-1.75-4.18.43-4.82-3.75-10.31-9.22-5.52-13.18-3.76-7.69,4.4-7.69,9.23S169.11,225.33,169.11,225.33Z" style="fill: rgb(178, 178, 178); transform-origin: 181.416px 225.081px;" id="elrw7povftoig" class="animable"></path><g style="clip-path: url(&quot;#freepik--clip-path-6--inject-15&quot;); transform-origin: 179.985px 225.393px;" id="elqlwzygg7sp" class="animable"><g id="elbqqmrghf9sd"><path d="M185.25,241.2c-4.95-.71-6.13-6.61-8.73-8.73s-4.25-9.21-4.25-15.58c0-4.33,3.26-7.78,5.36-9.56-.36.13-.71.26-1,.41-4,1.76-7.69,4.4-7.69,9.23s.22,8.36.22,8.36-1.76.22-1.54,3.51,3.73,4.62,3.73,4.62,3.74,3.74,6.16,6.59,5,3.74,9.23,3.3c3-.31,4.61-.86,5.63-3A13.65,13.65,0,0,1,185.25,241.2Z" style="opacity: 0.3; transform-origin: 179.985px 225.393px;" class="animable"></path></g></g><path d="M169.11,225.33s-1.76.22-1.54,3.51,3.73,4.62,3.73,4.62,3.74,3.74,6.16,6.59,5,3.74,9.23,3.3,5.72-1.32,6.6-6.37a30.74,30.74,0,0,0,.66-7.26s1.53.22,1.31-3.73-1.75-4.18-1.75-4.18.43-4.82-3.75-10.31-9.22-5.52-13.18-3.76-7.69,4.4-7.69,9.23S169.11,225.33,169.11,225.33Z" style="fill: none; stroke: rgb(38, 50, 56); stroke-linecap: round; stroke-linejoin: round; transform-origin: 181.416px 225.081px;" id="elo5c56syx52h" class="animable"></path><path d="M180.29,221.4c.24,1,0,2-.53,2.09s-1.17-.6-1.42-1.62,0-2,.53-2.09S180,220.38,180.29,221.4Z" style="fill: rgb(38, 50, 56); transform-origin: 179.313px 221.635px;" id="el2i6wf2cs9nw" class="animable"></path><g id="eliy0prwum6ma"><ellipse cx="187.85" cy="220.11" rx="1" ry="1.91" style="fill: rgb(38, 50, 56); transform-origin: 187.85px 220.11px; transform: rotate(-13.5deg);" class="animable"></ellipse></g><polyline points="184.57 219.58 185.95 226.44 181.83 227.35" style="fill: none; stroke: rgb(38, 50, 56); stroke-linecap: round; stroke-linejoin: round; transform-origin: 183.89px 223.465px;" id="elxl6hdyrhzh" class="animable"></polyline><path d="M176.19,218.21a5.07,5.07,0,0,1,2.9-1.22" style="fill: none; stroke: rgb(38, 50, 56); stroke-linecap: round; stroke-linejoin: round; transform-origin: 177.64px 217.6px;" id="elco30pkeecy" class="animable"></path><path d="M185,215.77s2.29-.92,3.51.15" style="fill: none; stroke: rgb(38, 50, 56); stroke-linecap: round; stroke-linejoin: round; transform-origin: 186.755px 215.661px;" id="elcngn5b6gbrf" class="animable"></path><path d="M180.35,231.15a5.14,5.14,0,0,0,6.21.47" style="fill: none; stroke: rgb(38, 50, 56); stroke-linecap: round; stroke-linejoin: round; transform-origin: 183.455px 231.799px;" id="eljyttn59jyn" class="animable"></path></g><g id="freepik--Net--inject-15" class="animable" style="transform-origin: 250.425px 207.415px;"><g style="clip-path: url(&quot;#freepik--clip-path-7--inject-15&quot;); transform-origin: 250.425px 207.415px;" id="elt8a7z3na21s" class="animable"><rect x="11.57" y="147.4" width="477.71" height="5.72" style="fill: rgb(255, 255, 255); stroke: rgb(38, 50, 56); stroke-linecap: round; stroke-linejoin: round; transform-origin: 250.425px 150.26px;" id="el9motyysbmfg" class="animable"></rect><rect x="11.57" y="261.71" width="477.71" height="5.72" style="fill: rgb(255, 255, 255); stroke: rgb(38, 50, 56); stroke-linecap: round; stroke-linejoin: round; transform-origin: 250.425px 264.57px;" id="elbbhkt4enw36" class="animable"></rect><line x1="98.1" y1="153.11" x2="98.1" y2="261.43" style="fill: none; stroke: rgb(38, 50, 56); stroke-linecap: round; stroke-linejoin: round; stroke-width: 0.5px; transform-origin: 98.1px 207.27px;" id="elbu7c1ldk35" class="animable"></line><line x1="85.33" y1="153.11" x2="85.33" y2="261.43" style="fill: none; stroke: rgb(38, 50, 56); stroke-linecap: round; stroke-linejoin: round; stroke-width: 0.5px; transform-origin: 85.33px 207.27px;" id="el3uwj9i3oq1m" class="animable"></line><line x1="72.55" y1="153.11" x2="72.55" y2="261.43" style="fill: none; stroke: rgb(38, 50, 56); stroke-linecap: round; stroke-linejoin: round; stroke-width: 0.5px; transform-origin: 72.55px 207.27px;" id="ely2rwk5flb1f" class="animable"></line><line x1="59.77" y1="153.11" x2="59.77" y2="261.43" style="fill: none; stroke: rgb(38, 50, 56); stroke-linecap: round; stroke-linejoin: round; stroke-width: 0.5px; transform-origin: 59.77px 207.27px;" id="elk021t3h1d88" class="animable"></line><line x1="47" y1="153.11" x2="47" y2="261.43" style="fill: none; stroke: rgb(38, 50, 56); stroke-linecap: round; stroke-linejoin: round; stroke-width: 0.5px; transform-origin: 47px 207.27px;" id="el7w9qkv7nl34" class="animable"></line><line x1="34.22" y1="234.17" x2="34.22" y2="261.43" style="fill: none; stroke: rgb(38, 50, 56); stroke-linecap: round; stroke-linejoin: round; stroke-width: 0.5px; transform-origin: 34.22px 247.8px;" id="elq3ctw9bo4cg" class="animable"></line><line x1="34.22" y1="181.74" x2="34.22" y2="221.83" style="fill: none; stroke: rgb(38, 50, 56); stroke-linecap: round; stroke-linejoin: round; stroke-width: 0.5px; transform-origin: 34.22px 201.785px;" id="eljlsfoj8h0p" class="animable"></line><line x1="34.22" y1="153.11" x2="34.22" y2="169.41" style="fill: none; stroke: rgb(38, 50, 56); stroke-linecap: round; stroke-linejoin: round; stroke-width: 0.5px; transform-origin: 34.22px 161.26px;" id="elfwzelkjw5g" class="animable"></line><line x1="110.3" y1="153.11" x2="110.3" y2="261.43" style="fill: none; stroke: rgb(38, 50, 56); stroke-linecap: round; stroke-linejoin: round; stroke-width: 0.5px; transform-origin: 110.3px 207.27px;" id="elc55wy75a49v" class="animable"></line><line x1="122.5" y1="153.11" x2="122.5" y2="261.43" style="fill: none; stroke: rgb(38, 50, 56); stroke-linecap: round; stroke-linejoin: round; stroke-width: 0.5px; transform-origin: 122.5px 207.27px;" id="el7n82468wmkt" class="animable"></line><line x1="134.7" y1="153.11" x2="134.7" y2="261.43" style="fill: none; stroke: rgb(38, 50, 56); stroke-linecap: round; stroke-linejoin: round; stroke-width: 0.5px; transform-origin: 134.7px 207.27px;" id="elwjicc1k5rhn" class="animable"></line><line x1="146.9" y1="153.11" x2="146.9" y2="261.43" style="fill: none; stroke: rgb(38, 50, 56); stroke-linecap: round; stroke-linejoin: round; stroke-width: 0.5px; transform-origin: 146.9px 207.27px;" id="elis6k26rb249" class="animable"></line><line x1="159.1" y1="153.11" x2="159.1" y2="261.43" style="fill: none; stroke: rgb(38, 50, 56); stroke-linecap: round; stroke-linejoin: round; stroke-width: 0.5px; transform-origin: 159.1px 207.27px;" id="el8dxclr0xz7w" class="animable"></line><line x1="171.3" y1="153.11" x2="171.3" y2="261.43" style="fill: none; stroke: rgb(38, 50, 56); stroke-linecap: round; stroke-linejoin: round; stroke-width: 0.5px; transform-origin: 171.3px 207.27px;" id="eljz07mn5o3w" class="animable"></line><line x1="183.5" y1="153.11" x2="183.5" y2="261.43" style="fill: none; stroke: rgb(38, 50, 56); stroke-linecap: round; stroke-linejoin: round; stroke-width: 0.5px; transform-origin: 183.5px 207.27px;" id="elo3wxh9o3jrl" class="animable"></line><line x1="195.7" y1="153.11" x2="195.7" y2="261.43" style="fill: none; stroke: rgb(38, 50, 56); stroke-linecap: round; stroke-linejoin: round; stroke-width: 0.5px; transform-origin: 195.7px 207.27px;" id="elgyw8fpojud8" class="animable"></line><line x1="207.9" y1="153.11" x2="207.9" y2="261.43" style="fill: none; stroke: rgb(38, 50, 56); stroke-linecap: round; stroke-linejoin: round; stroke-width: 0.5px; transform-origin: 207.9px 207.27px;" id="elrxmiyv6iey" class="animable"></line><line x1="220.1" y1="153.11" x2="220.1" y2="261.43" style="fill: none; stroke: rgb(38, 50, 56); stroke-linecap: round; stroke-linejoin: round; stroke-width: 0.5px; transform-origin: 220.1px 207.27px;" id="el8qogh4rrr1c" class="animable"></line><line x1="232.31" y1="153.11" x2="232.31" y2="261.43" style="fill: none; stroke: rgb(38, 50, 56); stroke-linecap: round; stroke-linejoin: round; stroke-width: 0.5px; transform-origin: 232.31px 207.27px;" id="el1b14jag9jg2j" class="animable"></line><line x1="244.51" y1="153.11" x2="244.51" y2="261.43" style="fill: none; stroke: rgb(38, 50, 56); stroke-linecap: round; stroke-linejoin: round; stroke-width: 0.5px; transform-origin: 244.51px 207.27px;" id="elt8vjevdo4oh" class="animable"></line><line x1="256.71" y1="153.11" x2="256.71" y2="261.43" style="fill: none; stroke: rgb(38, 50, 56); stroke-linecap: round; stroke-linejoin: round; stroke-width: 0.5px; transform-origin: 256.71px 207.27px;" id="elrkf998120c" class="animable"></line><line x1="268.91" y1="153.11" x2="268.91" y2="261.43" style="fill: none; stroke: rgb(38, 50, 56); stroke-linecap: round; stroke-linejoin: round; stroke-width: 0.5px; transform-origin: 268.91px 207.27px;" id="elw3pobqmpvk" class="animable"></line><line x1="281.11" y1="153.11" x2="281.11" y2="261.43" style="fill: none; stroke: rgb(38, 50, 56); stroke-linecap: round; stroke-linejoin: round; stroke-width: 0.5px; transform-origin: 281.11px 207.27px;" id="el4xewqf39dpg" class="animable"></line><line x1="293.31" y1="153.11" x2="293.31" y2="261.43" style="fill: none; stroke: rgb(38, 50, 56); stroke-linecap: round; stroke-linejoin: round; stroke-width: 0.5px; transform-origin: 293.31px 207.27px;" id="elixn5ffdhvvm" class="animable"></line><line x1="305.51" y1="153.11" x2="305.51" y2="261.43" style="fill: none; stroke: rgb(38, 50, 56); stroke-linecap: round; stroke-linejoin: round; stroke-width: 0.5px; transform-origin: 305.51px 207.27px;" id="elc8ko6thsuo7" class="animable"></line><line x1="317.71" y1="153.11" x2="317.71" y2="261.43" style="fill: none; stroke: rgb(38, 50, 56); stroke-linecap: round; stroke-linejoin: round; stroke-width: 0.5px; transform-origin: 317.71px 207.27px;" id="elhfcgjj9b1sp" class="animable"></line><line x1="329.91" y1="153.11" x2="329.91" y2="261.43" style="fill: none; stroke: rgb(38, 50, 56); stroke-linecap: round; stroke-linejoin: round; stroke-width: 0.5px; transform-origin: 329.91px 207.27px;" id="elyebi20elb5" class="animable"></line><line x1="342.11" y1="153.11" x2="342.11" y2="261.43" style="fill: none; stroke: rgb(38, 50, 56); stroke-linecap: round; stroke-linejoin: round; stroke-width: 0.5px; transform-origin: 342.11px 207.27px;" id="elohj8e10rma" class="animable"></line><line x1="354.31" y1="153.11" x2="354.31" y2="261.43" style="fill: none; stroke: rgb(38, 50, 56); stroke-linecap: round; stroke-linejoin: round; stroke-width: 0.5px; transform-origin: 354.31px 207.27px;" id="elrsqixgxelus" class="animable"></line><line x1="366.51" y1="153.11" x2="366.51" y2="261.43" style="fill: none; stroke: rgb(38, 50, 56); stroke-linecap: round; stroke-linejoin: round; stroke-width: 0.5px; transform-origin: 366.51px 207.27px;" id="eljbboybdyxv8" class="animable"></line><line x1="378.71" y1="153.11" x2="378.71" y2="261.43" style="fill: none; stroke: rgb(38, 50, 56); stroke-linecap: round; stroke-linejoin: round; stroke-width: 0.5px; transform-origin: 378.71px 207.27px;" id="elr2hzypg0y" class="animable"></line><line x1="390.91" y1="153.11" x2="390.91" y2="261.43" style="fill: none; stroke: rgb(38, 50, 56); stroke-linecap: round; stroke-linejoin: round; stroke-width: 0.5px; transform-origin: 390.91px 207.27px;" id="eld08tv3ui72e" class="animable"></line><line x1="403.11" y1="153.11" x2="403.11" y2="261.43" style="fill: none; stroke: rgb(38, 50, 56); stroke-linecap: round; stroke-linejoin: round; stroke-width: 0.5px; transform-origin: 403.11px 207.27px;" id="eljstaybv9mrl" class="animable"></line><line x1="414.56" y1="153.11" x2="414.56" y2="261.43" style="fill: none; stroke: rgb(38, 50, 56); stroke-linecap: round; stroke-linejoin: round; stroke-width: 0.5px; transform-origin: 414.56px 207.27px;" id="eld33txuqpcml" class="animable"></line><line x1="426.02" y1="153.11" x2="426.02" y2="261.43" style="fill: none; stroke: rgb(38, 50, 56); stroke-linecap: round; stroke-linejoin: round; stroke-width: 0.5px; transform-origin: 426.02px 207.27px;" id="elc6bft26orgw" class="animable"></line><line x1="437.47" y1="153.11" x2="437.47" y2="261.43" style="fill: none; stroke: rgb(38, 50, 56); stroke-linecap: round; stroke-linejoin: round; stroke-width: 0.5px; transform-origin: 437.47px 207.27px;" id="elefneh0h9zkc" class="animable"></line><line x1="448.93" y1="153.11" x2="448.93" y2="261.43" style="fill: none; stroke: rgb(38, 50, 56); stroke-linecap: round; stroke-linejoin: round; stroke-width: 0.5px; transform-origin: 448.93px 207.27px;" id="el9vkquj7wazo" class="animable"></line><line x1="460.38" y1="153.11" x2="460.38" y2="261.43" style="fill: none; stroke: rgb(38, 50, 56); stroke-linecap: round; stroke-linejoin: round; stroke-width: 0.5px; transform-origin: 460.38px 207.27px;" id="eliehnphj84sf" class="animable"></line><line x1="471.84" y1="244.74" x2="471.84" y2="261.43" style="fill: none; stroke: rgb(38, 50, 56); stroke-linecap: round; stroke-linejoin: round; stroke-width: 0.5px; transform-origin: 471.84px 253.085px;" id="el4v70o13cuhm" class="animable"></line><line x1="471.84" y1="181.3" x2="471.84" y2="235.49" style="fill: none; stroke: rgb(38, 50, 56); stroke-linecap: round; stroke-linejoin: round; stroke-width: 0.5px; transform-origin: 471.84px 208.395px;" id="elr67ocw9pw2" class="animable"></line><line x1="471.84" y1="153.11" x2="471.84" y2="168.97" style="fill: none; stroke: rgb(38, 50, 56); stroke-linecap: round; stroke-linejoin: round; stroke-width: 0.5px; transform-origin: 471.84px 161.04px;" id="elfg0p9dyqt9c" class="animable"></line><line x1="31.07" y1="162.57" x2="466.79" y2="162.57" style="fill: none; stroke: rgb(38, 50, 56); stroke-linecap: round; stroke-linejoin: round; stroke-width: 0.5px; transform-origin: 248.93px 162.57px;" id="elmpvn77o6z" class="animable"></line><line x1="39.44" y1="173.78" x2="480.01" y2="173.78" style="fill: none; stroke: rgb(38, 50, 56); stroke-linecap: round; stroke-linejoin: round; stroke-width: 0.5px; transform-origin: 259.725px 173.78px;" id="elbi4dvy0efl" class="animable"></line><line x1="36.8" y1="184.99" x2="467.67" y2="184.99" style="fill: none; stroke: rgb(38, 50, 56); stroke-linecap: round; stroke-linejoin: round; stroke-width: 0.5px; transform-origin: 252.235px 184.99px;" id="ellanbb7b47uq" class="animable"></line><line x1="34.15" y1="196.2" x2="474.28" y2="196.2" style="fill: none; stroke: rgb(38, 50, 56); stroke-linecap: round; stroke-linejoin: round; stroke-width: 0.5px; transform-origin: 254.215px 196.2px;" id="el72f1a3yfa1" class="animable"></line><line x1="37.24" y1="207.41" x2="473.4" y2="207.41" style="fill: none; stroke: rgb(38, 50, 56); stroke-linecap: round; stroke-linejoin: round; stroke-width: 0.5px; transform-origin: 255.32px 207.41px;" id="el35tippdhk25" class="animable"></line><line x1="29.75" y1="218.62" x2="472.08" y2="218.62" style="fill: none; stroke: rgb(38, 50, 56); stroke-linecap: round; stroke-linejoin: round; stroke-width: 0.5px; transform-origin: 250.915px 218.62px;" id="el5rs0q4mvpzr" class="animable"></line><line x1="36.8" y1="229.83" x2="476.92" y2="229.83" style="fill: none; stroke: rgb(38, 50, 56); stroke-linecap: round; stroke-linejoin: round; stroke-width: 0.5px; transform-origin: 256.86px 229.83px;" id="el34f3k4bmjc9" class="animable"></line><line x1="52.22" y1="241.04" x2="478.24" y2="241.04" style="fill: none; stroke: rgb(38, 50, 56); stroke-linecap: round; stroke-linejoin: round; stroke-width: 0.5px; transform-origin: 265.23px 241.04px;" id="elkynx1pby4yg" class="animable"></line><line x1="32.83" y1="252.25" x2="483.09" y2="252.25" style="fill: none; stroke: rgb(38, 50, 56); stroke-linecap: round; stroke-linejoin: round; stroke-width: 0.5px; transform-origin: 257.96px 252.25px;" id="el9k9grvr9qtg" class="animable"></line></g></g><g id="freepik--character-2--inject-15" class="animable" style="transform-origin: 266.934px 261.836px;"><path d="M285,307s1.1,22.42,5.06,40.89-.44,18.46,2.64,32.31,7.91,28.36,7.91,37.37.22,8.36-3.08,14.29a56.6,56.6,0,0,1-8.57,11.43c-1.76,2,.88,2,4.84,1.54s9.23-.66,12.31-4.4,3.51-3.73,6.37-7.47-2.2-8.13-3.08-10.77.44-9.45,2-17.37,2.42-19.78,1.1-28.57-4.18-13.41-4.18-19.13,6.16-32.31,6.38-43.08.22-13,.22-13S301,308.53,285,307Z" style="fill: rgb(255, 255, 255); transform-origin: 299.96px 373.06px;" id="el5e2lo9ooynl" class="animable"></path><g style="clip-path: url(&quot;#freepik--clip-path-8--inject-15&quot;); transform-origin: 299.905px 373.074px;" id="elsihve2cvl7" class="animable"><g id="elr9v292xxjb"><path d="M285,307s1.1,22.42,5.06,40.89-.44,18.46,2.64,32.31,7.91,28.36,7.91,37.37.22,8.36-3.08,14.29a56.6,56.6,0,0,1-8.57,11.43c-1.64,1.85.54,2,4,1.62a56,56,0,0,0,5-2.68c4.25-2.6,10.5-11,10.5-14.5s-2.5-7.5-2.5-23-3-27-7-36.5-5.5-31-.5-40.5c4.24-8.06,13.51-16.47,16.23-18.84.12-6.36.12-7.82.12-7.82S301,308.53,285,307Z" style="opacity: 0.3; transform-origin: 299.905px 373.074px;" class="animable"></path></g></g><path d="M285,307s1.1,22.42,5.06,40.89-.44,18.46,2.64,32.31,7.91,28.36,7.91,37.37.22,8.36-3.08,14.29a56.6,56.6,0,0,1-8.57,11.43c-1.76,2,.88,2,4.84,1.54s9.23-.66,12.31-4.4,3.51-3.73,6.37-7.47-2.2-8.13-3.08-10.77.44-9.45,2-17.37,2.42-19.78,1.1-28.57-4.18-13.41-4.18-19.13,6.16-32.31,6.38-43.08.22-13,.22-13S301,308.53,285,307Z" style="fill: none; stroke: rgb(38, 50, 56); stroke-linecap: round; stroke-linejoin: round; transform-origin: 299.96px 373.06px;" id="elm2quf5jojic" class="animable"></path><path d="M251.54,302.59s.44,7.7,2,21.55,5.27,21.54,5.27,29.89-4.39,21.55-.44,36.05,8.14,20.45,9.24,27.92-2,21.76-4.18,24.4-2.64,4.4-.22,4.84,7-1.54,9.89-4,2-5.49,3.3-8.13,6.81-3.08,3.52-9.67c-1.87-3.73-4.4-6.16-4.62-11.21s-2.2-5.94.22-27.92,2.86-23.52,2.64-34.73.88-20.45,1.32-28.58S280.78,307,280.78,307s-20-2.86-23.3-3.74A19.28,19.28,0,0,0,251.54,302.59Z" style="fill: rgb(255, 255, 255); transform-origin: 266.246px 374.937px;" id="eldj6rzg779do" class="animable"></path><g style="clip-path: url(&quot;#freepik--clip-path-9--inject-15&quot;); transform-origin: 265.955px 374.929px;" id="eloc93woknpba" class="animable"><g id="elgovjv4odkb"><path d="M277.17,306.47c-5.92-.87-17.28-2.57-19.69-3.22a19.28,19.28,0,0,0-5.94-.66s.44,7.7,2,21.55,5.27,21.54,5.27,29.89-4.39,21.55-.44,36.05,8.14,20.45,9.24,27.92-2,21.76-4.18,24.4-2.64,4.4-.22,4.84a6.64,6.64,0,0,0,2.55-.19,30.4,30.4,0,0,1,4.26-5.33c4-3.5,5.5-9,7.5-14s-6.5-11.5-9-20.5-1.5-21.5-1.5-35.5-2-15.5-1-24c.85-7.2,11-27.64,14.1-33.75.09-1,.17-1.9.25-2.73Z" style="opacity: 0.3; transform-origin: 265.955px 374.929px;" class="animable"></path></g></g><path d="M251.54,302.59s.44,7.7,2,21.55,5.27,21.54,5.27,29.89-4.39,21.55-.44,36.05,8.14,20.45,9.24,27.92-2,21.76-4.18,24.4-2.64,4.4-.22,4.84,7-1.54,9.89-4,2-5.49,3.3-8.13,6.81-3.08,3.52-9.67c-1.87-3.73-4.4-6.16-4.62-11.21s-2.2-5.94.22-27.92,2.86-23.52,2.64-34.73.88-20.45,1.32-28.58S280.78,307,280.78,307s-20-2.86-23.3-3.74A19.28,19.28,0,0,0,251.54,302.59Z" style="fill: none; stroke: rgb(38, 50, 56); stroke-linecap: round; stroke-linejoin: round; transform-origin: 266.246px 374.937px;" id="el87tdkui5x2" class="animable"></path><circle cx="268.48" cy="92.93" r="16.56" style="fill: rgb(0, 41, 255); transform-origin: 268.48px 92.93px;" id="ela05mgk2olxs" class="animable"></circle><g style="clip-path: url(&quot;#freepik--clip-path-10--inject-15&quot;); transform-origin: 268.025px 93.5501px;" id="elvbbukrvneah" class="animable"><g id="eluas3vxh86vo"><path d="M277.37,102.5c-9.49,0-17.18-7.43-17.18-16.6a16,16,0,0,1,2.32-8.29A16.62,16.62,0,0,0,252,92.89c0,9.17,7.69,16.6,17.18,16.6a17.29,17.29,0,0,0,14.87-8.31A17.65,17.65,0,0,1,277.37,102.5Z" style="opacity: 0.3; transform-origin: 268.025px 93.5501px;" class="animable"></path></g></g><circle cx="268.48" cy="92.93" r="16.56" style="fill: none; stroke: rgb(38, 50, 56); stroke-miterlimit: 10; transform-origin: 268.48px 92.93px;" id="elm4jsge8cpip" class="animable"></circle><path d="M252.48,88.88s7.07,8.87,20.09,5.48c0,0,1.16-9.57,7.17-13.5" style="fill: none; stroke: rgb(38, 50, 56); stroke-miterlimit: 10; transform-origin: 266.11px 87.9961px;" id="elhoh6eemi13j" class="animable"></path><path d="M272.57,94.36s6.21,6.23,2.36,13.76" style="fill: none; stroke: rgb(38, 50, 56); stroke-miterlimit: 10; transform-origin: 274.379px 101.24px;" id="elu250fnzwsgr" class="animable"></path><path d="M252.48,96.9s7.62,9.06,23.57,5" style="fill: none; stroke: rgb(38, 50, 56); stroke-miterlimit: 10; transform-origin: 264.265px 99.9234px;" id="eluafwtutr4w" class="animable"></path><path d="M275.33,86s8.58,8.34,6.5,16.84" style="fill: none; stroke: rgb(38, 50, 56); stroke-miterlimit: 10; transform-origin: 278.743px 94.42px;" id="ell2g5kbfyfhn" class="animable"></path><path d="M278.54,81.9s5.37,5,6.17,8.1" style="fill: none; stroke: rgb(38, 50, 56); stroke-miterlimit: 10; transform-origin: 281.625px 85.95px;" id="elds0qh38xvon" class="animable"></path><path d="M262.58,94.73s2.89-16.28,13.23-16.6" style="fill: none; stroke: rgb(38, 50, 56); stroke-miterlimit: 10; transform-origin: 269.195px 86.43px;" id="elj43xpwdspsm" class="animable"></path><path d="M255.21,91.36s2.24-12.83,12.1-14.83" style="fill: none; stroke: rgb(38, 50, 56); stroke-miterlimit: 10; transform-origin: 261.26px 83.945px;" id="el1h5ww9xxn3e" class="animable"></path><path d="M276.5,188.41s1.16,9.27-2,12.16-11.87,2-16.8,3.48a17.68,17.68,0,0,0-10.42,8.69c-1.74,3.47-17.38,12.74-17.38,12.74l9-16.22c1.45-2.6.29-4,4.34-4s7.53-1.16,6.66-3.48l-.86-2.31s2-4.35,0-5.8-5.51-.87-8.4-.87-6.67,4.06-7.53,8.11-.29,4.93-3.19,8.69-9,11.88-12.74,18.83-7.54,14.77-4.06,15.64,27.52-7.82,32.15-10.72a83.21,83.21,0,0,1,10.14-5.21l7.53,24s-9,22-11.88,33.31-4,17.09-4,17.09,7.53,7.82,15.06,9.85,17.09,2.31,18,1.73,4.31-3.6,4.31-3.6,2.52,3.88,4.84,4.17,18.94,0,23.29-2.88,9.85-4.64,9.56-6.38-2.61-2.89-4.06-6.66-2.61-11.87-7.53-23.46a248.3,248.3,0,0,1-9-26.36s4.35-13.32,6.66-21.72,1.45-23.75,2.9-34.47.87-28.67.29-33.31-13.9-25.77-18.83-34.46l-4.92-8.69s4.2-6.48,4.53-9,.66-7.42-.16-6.43-.5,1.15-.83,2.3a28.12,28.12,0,0,1-1.81,3.8s.49-4.79.66-6.93-.66-4-1.32-3.79-.33,1.32-.33,2.8a62.15,62.15,0,0,1-1.32,7.09s-1-6.76-1.48-9.23-1.82-1.65-2-.83.33,9.9.33,9.9l-1.65-1.49s-.82-9.4-1.65-9.72-1.48-.17-1.15,1.31a65.68,65.68,0,0,1,.49,9.4c-.16.5-1.32,6.93-1.32,6.93s-2.14-4.62-3.29-6.93-2,1.49-1.32,3.3a42.43,42.43,0,0,1,2.14,6.92c.33,2.15,5.11,4.29,6.1,5.28s14,33.63,14.67,36.27a20.61,20.61,0,0,0,1.65,4.45L296,188.29l-3,11s-1,1.32-1.65,1.16.17-10.72.17-10.72Z" style="fill: rgb(255, 255, 255); transform-origin: 266.939px 204.705px;" id="ellys64f4spn8" class="animable"></path><g style="clip-path: url(&quot;#freepik--clip-path-11--inject-15&quot;); transform-origin: 260.764px 216.225px;" id="ellkx6265gtg" class="animable"><g id="el3w4g1ogpaij"><path d="M304,187.22c0-12,3-22-2-34.5S282.15,121,282.15,121c1,1,14,33.63,14.67,36.27a20.61,20.61,0,0,0,1.65,4.45L296,188.29l-3,11s-1,1.32-1.65,1.16.17-10.72.17-10.72l-15.05-1.36s1.16,9.27-2,12.16-11.87,2-16.8,3.48a17.68,17.68,0,0,0-10.42,8.69c-1.74,3.47-17.38,12.74-17.38,12.74l1-1.73c-2.19,1.41-5.27,3.43-8.45,5.59l1.12-1.12,7.77-19.48c-.92,1.61-3.68,4.65-7.27,9.48-4.71,6.34-8.75,12.87-10.09,17.14l-.44.33c-1.86,4.28-2.65,7.77-.4,8.33,3.48.87,27.52-7.82,32.15-10.72a83.21,83.21,0,0,1,10.14-5.21l7.53,24s-9,22-11.88,33.31-4,17.09-4,17.09,5.93,6.14,12.52,9c0-8.49.29-31.38,3.52-40.26,4-11,11.5-15.5,10-23s-10.5-20-11-25.5,5.5-7,5.5-7,.5,13.5,9.5,15,13.5,1.5,11,8,4.5,11,10,7a41.07,41.07,0,0,0,6.14-5.34c1.32-4.22,2.85-9.23,3.93-13.16a65.84,65.84,0,0,0,1.63-13.16C305.43,197.79,304,198.94,304,187.22Z" style="opacity: 0.3; transform-origin: 260.764px 216.225px;" class="animable"></path></g><g id="el2b0h22bajee"><path d="M236.32,194.8s.58-1.17,4.37-.58,7,.87,5.82,3.49a21.24,21.24,0,0,0-1.46,5.82s-2.91.88-4.36,1.17-7,2-8.16,2-.87-6.12.29-8.74A5.72,5.72,0,0,1,236.32,194.8Z" style="opacity: 0.3; transform-origin: 239.275px 200.377px;" class="animable"></path></g><g id="els3ty6l1qxq"><path d="M284.28,262.15s-3.57-16.42-1.07-14.28S285.35,260,284.28,262.15Z" style="opacity: 0.3; transform-origin: 283.709px 254.914px;" class="animable"></path></g></g><path d="M276.5,188.41s1.16,9.27-2,12.16-11.87,2-16.8,3.48a17.68,17.68,0,0,0-10.42,8.69c-1.74,3.47-17.38,12.74-17.38,12.74l9-16.22c1.45-2.6.29-4,4.34-4s7.53-1.16,6.66-3.48l-.86-2.31s2-4.35,0-5.8-5.51-.87-8.4-.87-6.67,4.06-7.53,8.11-.29,4.93-3.19,8.69-9,11.88-12.74,18.83-7.54,14.77-4.06,15.64,27.52-7.82,32.15-10.72a83.21,83.21,0,0,1,10.14-5.21l7.53,24s-9,22-11.88,33.31-4,17.09-4,17.09,7.53,7.82,15.06,9.85,17.09,2.31,18,1.73,4.31-3.6,4.31-3.6,2.52,3.88,4.84,4.17,18.94,0,23.29-2.88,9.85-4.64,9.56-6.38-2.61-2.89-4.06-6.66-2.61-11.87-7.53-23.46a248.3,248.3,0,0,1-9-26.36s4.35-13.32,6.66-21.72,1.45-23.75,2.9-34.47.87-28.67.29-33.31-13.9-25.77-18.83-34.46l-4.92-8.69s4.2-6.48,4.53-9,.66-7.42-.16-6.43-.5,1.15-.83,2.3a28.12,28.12,0,0,1-1.81,3.8s.49-4.79.66-6.93-.66-4-1.32-3.79-.33,1.32-.33,2.8a62.15,62.15,0,0,1-1.32,7.09s-1-6.76-1.48-9.23-1.82-1.65-2-.83.33,9.9.33,9.9l-1.65-1.49s-.82-9.4-1.65-9.72-1.48-.17-1.15,1.31a65.68,65.68,0,0,1,.49,9.4c-.16.5-1.32,6.93-1.32,6.93s-2.14-4.62-3.29-6.93-2,1.49-1.32,3.3a42.43,42.43,0,0,1,2.14,6.92c.33,2.15,5.11,4.29,6.1,5.28s14,33.63,14.67,36.27a20.61,20.61,0,0,0,1.65,4.45L296,188.29l-3,11s-1,1.32-1.65,1.16.17-10.72.17-10.72Z" style="fill: none; stroke: rgb(38, 50, 56); stroke-linecap: round; stroke-linejoin: round; transform-origin: 266.939px 204.705px;" id="elocycd42gtk" class="animable"></path><path d="M305,237.57c.59-1.9,1.19-3.87,1.75-5.76a187.16,187.16,0,0,1-50,.84l1,3.32C272.71,239.69,295.12,238.4,305,237.57Z" style="fill: rgb(0, 41, 255); transform-origin: 281.75px 235.144px;" id="el5z3dgiydj9" class="animable"></path><g style="clip-path: url(&quot;#freepik--clip-path-12--inject-15&quot;); transform-origin: 281.775px 235.13px;" id="el20iyirnv6kb" class="animable"><g id="elfhkanxetyxc"><g style="opacity: 0.3; transform-origin: 281.775px 235.13px;" class="animable"><path d="M287.78,238.45c6.94-.12,13.15-.54,17.23-.88.59-1.9,1.19-3.87,1.75-5.76a178.38,178.38,0,0,1-23.47,2.07A36.34,36.34,0,0,1,287.78,238.45Z" id="elpfs5sh4g8af" class="animable" style="transform-origin: 295.025px 235.13px;"></path><path d="M267.05,233.58c-4.86-.29-8.45-.69-10.26-.93l1,3.32a77.24,77.24,0,0,0,10.82,1.8Z" id="elxgyo64b636" class="animable" style="transform-origin: 262.7px 235.21px;"></path></g></g></g><path d="M305,237.57c.59-1.9,1.19-3.87,1.75-5.76a187.16,187.16,0,0,1-50,.84l1,3.32C272.71,239.69,295.12,238.4,305,237.57Z" style="fill: none; stroke: rgb(38, 50, 56); stroke-linecap: round; stroke-linejoin: round; transform-origin: 281.75px 235.144px;" id="el4iplqh7yq2t" class="animable"></path><path d="M283.74,149.6s-6.37.29-11.29,9.55-4.64,19.41-2.61,25.49,8.69,10.43,14.77,10.72,13.33-3.48,16.8-16.22,2.32-21.43-4.05-26.94A13.92,13.92,0,0,0,283.74,149.6Z" style="fill: rgb(38, 50, 56); stroke: rgb(38, 50, 56); stroke-linecap: round; stroke-linejoin: round; transform-origin: 285.899px 172.106px;" id="elopkgdsry67i" class="animable"></path><path d="M294.5,163.05a20,20,0,0,1-1.05,2.14c-3.94,7-6.37,7.89-6.37,7.89s9.41.61,13.05-3.64,2.13-8.2,2.13-8.2" style="fill: none; stroke: rgb(166, 166, 166); stroke-linecap: round; stroke-linejoin: round; transform-origin: 294.825px 167.175px;" id="elmco6tpq8ugm" class="animable"></path><path d="M295,152.74a10.87,10.87,0,0,1,.72,3.6" style="fill: none; stroke: rgb(166, 166, 166); stroke-linecap: round; stroke-linejoin: round; transform-origin: 295.36px 154.54px;" id="elvvc3gj2pnfe" class="animable"></path><path d="M286.78,170.65s.3-12.45-6.68-16.7" style="fill: none; stroke: rgb(166, 166, 166); stroke-linecap: round; stroke-linejoin: round; transform-origin: 283.441px 162.3px;" id="elxfxzcp4mlbj" class="animable"></path><path d="M284,173.64s-7.53,7.82-10.71,23.46,5.79,25.49,13,27.22,11.59,1.16,11.3,6.09-7.82,4.92-5.22,6.66,7.82,2.61,16.22-3.48,14.19-15.93,8.4-28.38-18-13.9-23.46-20-3.48-12.45-5.5-14.19S284,173.64,284,173.64Z" style="fill: rgb(38, 50, 56); stroke: rgb(38, 50, 56); stroke-linecap: round; stroke-linejoin: round; transform-origin: 295.979px 204.481px;" id="elch1ruu70pt6" class="animable"></path><path d="M307.69,230.15a8.87,8.87,0,0,1-3.3,4" style="fill: none; stroke: rgb(166, 166, 166); stroke-linecap: round; stroke-linejoin: round; transform-origin: 306.04px 232.15px;" id="elfafy62911w" class="animable"></path><path d="M285.26,174s-9.11,17-4.25,27.63,13.66,10.63,22.16,14c4,1.58,5.68,5.16,5.74,8.8" style="fill: none; stroke: rgb(166, 166, 166); stroke-linecap: round; stroke-linejoin: round; transform-origin: 294.246px 199.215px;" id="elnmqovhplwa" class="animable"></path><path d="M285.86,177.63S282.52,191,291,198s23.37,10.93,24.89,18.21-2.12,10.93-2.12,10.93" style="fill: none; stroke: rgb(166, 166, 166); stroke-linecap: round; stroke-linejoin: round; transform-origin: 300.736px 202.385px;" id="elvsmc5k853us" class="animable"></path><path d="M289.07,221.38c1.25.24,2.52.41,3.78.58" style="fill: none; stroke: rgb(166, 166, 166); stroke-linecap: round; stroke-linejoin: round; transform-origin: 290.96px 221.67px;" id="el4mtzciqa8mv" class="animable"></path><path d="M281.92,180.67s-9.42,17-6.08,28.24c1.76,5.91,4.53,9,7.74,10.66" style="fill: none; stroke: rgb(166, 166, 166); stroke-linecap: round; stroke-linejoin: round; transform-origin: 279.352px 200.12px;" id="elsjnrysyvm28" class="animable"></path><path d="M322,305.42c-.29-1.73-2.61-2.89-4.06-6.66s-2.61-11.87-7.53-23.46c-.8-1.88-1.57-3.84-2.31-5.8-22-7-42.82-3-51.65-.63-2.13,5.84-4.26,12.06-5.42,16.57-2.89,11.3-4,17.09-4,17.09s7.53,7.82,15.06,9.85,17.09,2.31,18,1.73,4.31-3.6,4.31-3.6,2.52,3.88,4.84,4.17,18.94,0,23.29-2.88S322.27,307.16,322,305.42Z" style="fill: rgb(0, 41, 255); transform-origin: 284.52px 290.167px;" id="elr1rktboked" class="animable"></path><g style="clip-path: url(&quot;#freepik--clip-path-13--inject-15&quot;); transform-origin: 275.673px 291.004px;" id="elpwtlo7nldg" class="animable"><g id="eli1azi2dg0bo"><path d="M289.5,311.72c3-3,10.5-6,13.5-9s1-3.5-6.5-1-10.5,3-18.5,0-13-3-17.5-13.5c-3.71-8.66,1.42-18,3.33-21-3,.55-5.47,1.14-7.4,1.66-2.13,5.84-4.26,12.06-5.42,16.57-2.89,11.3-4,17.09-4,17.09s7.53,7.82,15.06,9.85,17.09,2.31,18,1.73,4.31-3.6,4.31-3.6,2.52,3.88,4.84,4.17a28.44,28.44,0,0,0,3,.09C289.85,313.89,288.38,312.84,289.5,311.72Z" style="opacity: 0.3; transform-origin: 275.673px 291.004px;" class="animable"></path></g></g><path d="M322,305.42c-.29-1.73-2.61-2.89-4.06-6.66s-2.61-11.87-7.53-23.46c-.8-1.88-1.57-3.84-2.31-5.8-22-7-42.82-3-51.65-.63-2.13,5.84-4.26,12.06-5.42,16.57-2.89,11.3-4,17.09-4,17.09s7.53,7.82,15.06,9.85,17.09,2.31,18,1.73,4.31-3.6,4.31-3.6,2.52,3.88,4.84,4.17,18.94,0,23.29-2.88S322.27,307.16,322,305.42Z" style="fill: none; stroke: rgb(38, 50, 56); stroke-linecap: round; stroke-linejoin: round; transform-origin: 284.52px 290.167px;" id="elbomfpxw0tmk" class="animable"></path><line x1="229.87" y1="225.48" x2="221.64" y2="230.71" style="fill: none; stroke: rgb(38, 50, 56); stroke-linecap: round; stroke-linejoin: round; transform-origin: 225.755px 228.095px;" id="eldil372gvwu" class="animable"></line></g><defs>     <filter id="active" height="200%">         <feMorphology in="SourceAlpha" result="DILATED" operator="dilate" radius="2"></feMorphology>                <feFlood flood-color="#32DFEC" flood-opacity="1" result="PINK"></feFlood>        <feComposite in="PINK" in2="DILATED" operator="in" result="OUTLINE"></feComposite>        <feMerge>            <feMergeNode in="OUTLINE"></feMergeNode>            <feMergeNode in="SourceGraphic"></feMergeNode>        </feMerge>    </filter>    <filter id="hover" height="200%">        <feMorphology in="SourceAlpha" result="DILATED" operator="dilate" radius="2"></feMorphology>                <feFlood flood-color="#ff0000" flood-opacity="0.5" result="PINK"></feFlood>        <feComposite in="PINK" in2="DILATED" operator="in" result="OUTLINE"></feComposite>        <feMerge>            <feMergeNode in="OUTLINE"></feMergeNode>            <feMergeNode in="SourceGraphic"></feMergeNode>        </feMerge>            <feColorMatrix type="matrix" values="0   0   0   0   0                0   1   0   0   0                0   0   0   0   0                0   0   0   1   0 "></feColorMatrix>    </filter></defs><defs><clipPath id="freepik--clip-path--inject-15"><path d="M166.91,325.57a69.36,69.36,0,0,0-7,25.06c-1.32,14.72,3.08,31.87,2.64,34.51s-1.1,10.55,1.32,17.14,13.85,16.49,14.73,19.57,1.76,6.81.66,9-6.36,8.94-7.18,10.08c-.39.56,0,0,9.6.91,2.19.21,2.63-5.27,4.17-8.79s5.5-5.5,4.62-8.57-5.28-5.06-7-10.55-1.53-14.95-3.07-22.21a44.91,44.91,0,0,0-4.18-11.87s3.08-20.88,5.5-25.06,6.81-14.51,7.91-20.88-5.72-10.11-12.31-11S166.91,325.57,166.91,325.57Z" style="fill:#b2b2b2;stroke:#263238;stroke-linecap:round;stroke-linejoin:round"></path></clipPath><clipPath id="freepik--clip-path-2--inject-15"><path d="M195.26,335s9.68,25.94,15,34.07,7.92,10.77,7.92,10.77a27.1,27.1,0,0,0,0,13.63c2,7,7,20.89,8.35,24s3.08,6.38,3.3,9.67a39.69,39.69,0,0,0,1.1,6.6s7.07.15,10.33-1.1c1.28-.49-7.26-10.55-8.14-15.61s2.86-26.82.88-32.09-5-12.09-5-12.09-3.3-29.68-6.82-38.69-4.83-11.43-5.27-12.53-4.62-.88-10.77,2S195.26,335,195.26,335Z" style="fill:#b2b2b2;stroke:#263238;stroke-linecap:round;stroke-linejoin:round"></path></clipPath><clipPath id="freepik--clip-path-3--inject-15"><path d="M171.08,307.32l-5.27,20.22s10.33.66,15.17,4.18,7.69,5.28,7.69,5.28,5.28.44,7,0,4.84-4.84,10.34-8.58a37.35,37.35,0,0,1,11.87-5.05l-6.38-18s-11.87,4-22.2,3.3S171.08,307.32,171.08,307.32Z" style="fill:#0029FF;stroke:#263238;stroke-linecap:round;stroke-linejoin:round"></path></clipPath><clipPath id="freepik--clip-path-4--inject-15"><path d="M172.62,233l2.2,13.85s-8.35,6.81-13.41,9-11.21,2.64-14.07,7.48a34.11,34.11,0,0,0-3.73,10.77s-5.72,8.57-8.36,14.95-.88,10.55,5.06,9.23,20.88-22.42,20.88-22.42,8.58,18.46,8.58,22,.43,9,1.53,12.09,22,5.05,30.78,1.54,9.45-5.28,9.45-5.28-2.2-17.14-.88-20.22,5.06-19.79,5.06-19.79,9.89,11.87,11.43,15,.22,11.65,1.1,18.91,2.11,17,1.93,17.69-4.35,4.07-4.57,6.27,1.32,4.83,1.54,5.71,2.42.22,3.52-.22,5.71-.44,6.37-2.42,1.1-2.19,1.1-4.83a35.43,35.43,0,0,0-1.27-7.15s3.69-24.95,2.81-32.42-3.08-9.67-4.84-13-7-11.65-8.79-14.07a16.88,16.88,0,0,0-9-6.59c-5.06-1.76-6.7-.34-12.38-1.34a81.26,81.26,0,0,1-13.36-3.93l-.86-11Z" style="fill:#b2b2b2;stroke:#263238;stroke-linecap:round;stroke-linejoin:round"></path></clipPath><clipPath id="freepik--clip-path-5--inject-15"><path d="M142.73,290.61s14.94,4.18,23.3,4.18,10.77-.88,11.65-1.32,5.71-5.71,6.81-5.05,6.38,5.49,5.94,7-3.3,4.84-5.5,5.72-5.49-1.1-6.15-1.32-6.82,2-18.25,3.07-20.88,3.3-25.28,1.1-3.29-5.93-2.86-8.57a16.46,16.46,0,0,1,2.42-5.5" style="fill:#b2b2b2;stroke:#263238;stroke-linecap:round;stroke-linejoin:round"></path></clipPath><clipPath id="freepik--clip-path-6--inject-15"><path d="M169.11,225.33s-1.76.22-1.54,3.51,3.73,4.62,3.73,4.62,3.74,3.74,6.16,6.59,5,3.74,9.23,3.3,5.72-1.32,6.6-6.37a30.74,30.74,0,0,0,.66-7.26s1.53.22,1.31-3.73-1.75-4.18-1.75-4.18.43-4.82-3.75-10.31-9.22-5.52-13.18-3.76-7.69,4.4-7.69,9.23S169.11,225.33,169.11,225.33Z" style="fill:#b2b2b2;stroke:#263238;stroke-linecap:round;stroke-linejoin:round"></path></clipPath><clipPath id="freepik--clip-path-7--inject-15"><rect x="25.92" y="144.97" width="451.45" height="127.36" style="fill:none"></rect></clipPath><clipPath id="freepik--clip-path-8--inject-15"><path d="M285,307s1.1,22.42,5.06,40.89-.44,18.46,2.64,32.31,7.91,28.36,7.91,37.37.22,8.36-3.08,14.29a56.6,56.6,0,0,1-8.57,11.43c-1.76,2,.88,2,4.84,1.54s9.23-.66,12.31-4.4,3.51-3.73,6.37-7.47-2.2-8.13-3.08-10.77.44-9.45,2-17.37,2.42-19.78,1.1-28.57-4.18-13.41-4.18-19.13,6.16-32.31,6.38-43.08.22-13,.22-13S301,308.53,285,307Z" style="fill:#fff;stroke:#263238;stroke-linecap:round;stroke-linejoin:round"></path></clipPath><clipPath id="freepik--clip-path-9--inject-15"><path d="M251.54,302.59s.44,7.7,2,21.55,5.27,21.54,5.27,29.89-4.39,21.55-.44,36.05,8.14,20.45,9.24,27.92-2,21.76-4.18,24.4-2.64,4.4-.22,4.84,7-1.54,9.89-4,2-5.49,3.3-8.13,6.81-3.08,3.52-9.67c-1.87-3.73-4.4-6.16-4.62-11.21s-2.2-5.94.22-27.92,2.86-23.52,2.64-34.73.88-20.45,1.32-28.58S280.78,307,280.78,307s-20-2.86-23.3-3.74A19.28,19.28,0,0,0,251.54,302.59Z" style="fill:#fff;stroke:#263238;stroke-linecap:round;stroke-linejoin:round"></path></clipPath><clipPath id="freepik--clip-path-10--inject-15"><circle cx="268.48" cy="92.93" r="16.56" style="fill:#0029FF;stroke:#263238;stroke-miterlimit:10"></circle></clipPath><clipPath id="freepik--clip-path-11--inject-15"><path d="M276.5,188.41s1.16,9.27-2,12.16-11.87,2-16.8,3.48a17.68,17.68,0,0,0-10.42,8.69c-1.74,3.47-17.38,12.74-17.38,12.74l9-16.22c1.45-2.6.29-4,4.34-4s7.53-1.16,6.66-3.48l-.86-2.31s2-4.35,0-5.8-5.51-.87-8.4-.87-6.67,4.06-7.53,8.11-.29,4.93-3.19,8.69-9,11.88-12.74,18.83-7.54,14.77-4.06,15.64,27.52-7.82,32.15-10.72a83.21,83.21,0,0,1,10.14-5.21l7.53,24s-9,22-11.88,33.31-4,17.09-4,17.09,7.53,7.82,15.06,9.85,17.09,2.31,18,1.73,4.31-3.6,4.31-3.6,2.52,3.88,4.84,4.17,18.94,0,23.29-2.88,9.85-4.64,9.56-6.38-2.61-2.89-4.06-6.66-2.61-11.87-7.53-23.46a248.3,248.3,0,0,1-9-26.36s4.35-13.32,6.66-21.72,1.45-23.75,2.9-34.47.87-28.67.29-33.31-13.9-25.77-18.83-34.46l-4.92-8.69s4.2-6.48,4.53-9,.66-7.42-.16-6.43-.5,1.15-.83,2.3a28.12,28.12,0,0,1-1.81,3.8s.49-4.79.66-6.93-.66-4-1.32-3.79-.33,1.32-.33,2.8a62.15,62.15,0,0,1-1.32,7.09s-1-6.76-1.48-9.23-1.82-1.65-2-.83.33,9.9.33,9.9l-1.65-1.49s-.82-9.4-1.65-9.72-1.48-.17-1.15,1.31a65.68,65.68,0,0,1,.49,9.4c-.16.5-1.32,6.93-1.32,6.93s-2.14-4.62-3.29-6.93-2,1.49-1.32,3.3a42.43,42.43,0,0,1,2.14,6.92c.33,2.15,5.11,4.29,6.1,5.28s14,33.63,14.67,36.27a20.61,20.61,0,0,0,1.65,4.45L296,188.29l-3,11s-1,1.32-1.65,1.16.17-10.72.17-10.72Z" style="fill:#fff;stroke:#263238;stroke-linecap:round;stroke-linejoin:round"></path></clipPath><clipPath id="freepik--clip-path-12--inject-15"><path d="M305,237.57c.59-1.9,1.19-3.87,1.75-5.76a187.16,187.16,0,0,1-50,.84l1,3.32C272.71,239.69,295.12,238.4,305,237.57Z" style="fill:#0029FF;stroke:#263238;stroke-linecap:round;stroke-linejoin:round"></path></clipPath><clipPath id="freepik--clip-path-13--inject-15"><path d="M322,305.42c-.29-1.73-2.61-2.89-4.06-6.66s-2.61-11.87-7.53-23.46c-.8-1.88-1.57-3.84-2.31-5.8-22-7-42.82-3-51.65-.63-2.13,5.84-4.26,12.06-5.42,16.57-2.89,11.3-4,17.09-4,17.09s7.53,7.82,15.06,9.85,17.09,2.31,18,1.73,4.31-3.6,4.31-3.6,2.52,3.88,4.84,4.17,18.94,0,23.29-2.88S322.27,307.16,322,305.42Z" style="fill:#0029FF;stroke:#263238;stroke-linecap:round;stroke-linejoin:round"></path></clipPath></defs></svg>