<svg width="32" height="40" viewBox="0 0 32 40" fill="none" xmlns="http://www.w3.org/2000/svg">
<g clip-path="url(#clip0_188_1210)">
<path d="M30.7714 15.5371C30.7714 16.0199 30.7479 16.5018 30.701 16.9826C30.653 17.4634 30.5825 17.9401 30.4876 18.4138C30.3937 18.8875 30.2763 19.356 30.1364 19.8174C29.9966 20.2799 29.8332 20.7341 29.6485 21.1803C29.4637 21.6274 29.2575 22.0633 29.0299 22.489C28.8022 22.9146 28.5541 23.3291 28.2857 23.7303C28.0172 24.1325 27.7303 24.5194 27.4241 24.893C27.1178 25.2666 26.7932 25.6239 26.4522 25.9649C26.1103 26.3069 25.753 26.6305 25.3794 26.9378C25.0057 27.244 24.6188 27.5309 24.2166 27.7993C23.8154 28.0678 23.401 28.3159 22.9753 28.5435C22.5496 28.7712 22.1137 28.9774 21.6676 29.1621C21.2205 29.3469 20.7662 29.5092 20.3048 29.6501C19.8424 29.79 19.3738 29.9074 18.9001 30.0013C18.4265 30.0962 17.9497 30.1667 17.4689 30.2136C16.9881 30.2616 16.5063 30.2851 16.0234 30.2851C15.5406 30.2851 15.0587 30.2616 14.5779 30.2136C14.0971 30.1667 13.6194 30.0962 13.1457 30.0013C12.672 29.9074 12.2045 29.79 11.742 29.6501C11.2796 29.5092 10.8253 29.3469 10.3792 29.1621C9.93312 28.9774 9.49723 28.7712 9.07052 28.5435C8.64483 28.3159 8.23139 28.0678 7.82919 27.7993C7.428 27.5309 7.04008 27.244 6.66748 26.9378C6.29385 26.6305 5.93656 26.3069 5.59458 25.9649C5.2526 25.6239 4.929 25.2666 4.62275 24.893C4.3165 24.5194 4.02862 24.1325 3.76014 23.7303C3.49166 23.3291 3.2436 22.9146 3.01596 22.489C2.78831 22.0633 2.5821 21.6274 2.39733 21.1803C2.21256 20.7341 2.05025 20.2799 1.91039 19.8174C1.76952 19.356 1.65212 18.8875 1.55821 18.4138C1.46429 17.9401 1.39283 17.4634 1.34587 16.9826C1.29891 16.5018 1.27441 16.0199 1.27441 15.5371C1.27441 15.0532 1.29891 14.5714 1.34587 14.0916C1.39283 13.6108 1.46429 13.133 1.55821 12.6594C1.65212 12.1857 1.76952 11.7181 1.91039 11.2557C2.05025 10.7933 2.21256 10.339 2.39733 9.8929C2.5821 9.44679 2.78831 9.0109 3.01596 8.58419C3.2436 8.1585 3.49166 7.74507 3.76014 7.34286C4.02862 6.94167 4.3165 6.55375 4.62275 6.18013C4.929 5.80752 5.2526 5.44921 5.59458 5.10825C5.93656 4.76627 6.29385 4.44267 6.66748 4.13642C7.04008 3.83017 7.428 3.54229 7.82919 3.27382C8.23139 3.00534 8.64483 2.75727 9.07052 2.52963C9.49723 2.30198 9.93312 2.09577 10.3792 1.911C10.8253 1.72623 11.2796 1.56392 11.742 1.42304C12.2045 1.28319 12.672 1.16579 13.1457 1.07188C13.6194 0.977961 14.0971 0.906502 14.5779 0.859544C15.0587 0.812586 15.5406 0.788086 16.0234 0.788086C16.5063 0.788086 16.9881 0.812586 17.4689 0.859544C17.9497 0.906502 18.4265 0.977961 18.9001 1.07188C19.3738 1.16579 19.8424 1.28319 20.3048 1.42304C20.7662 1.56392 21.2205 1.72623 21.6676 1.911C22.1137 2.09577 22.5496 2.30198 22.9753 2.52963C23.401 2.75727 23.8154 3.00534 24.2166 3.27382C24.6188 3.54229 25.0057 3.83017 25.3794 4.13642C25.753 4.44267 26.1103 4.76627 26.4522 5.10825C26.7932 5.44921 27.1178 5.80752 27.4241 6.18013C27.7303 6.55375 28.0172 6.94167 28.2857 7.34286C28.5541 7.74507 28.8022 8.1585 29.0299 8.58419C29.2575 9.0109 29.4637 9.44679 29.6485 9.8929C29.8332 10.339 29.9966 10.7933 30.1364 11.2557C30.2763 11.7181 30.3937 12.1857 30.4876 12.6594C30.5825 13.133 30.653 13.6108 30.701 14.0916C30.7479 14.5714 30.7714 15.0532 30.7714 15.5371Z" fill="#E6E6E6"/>
<path d="M8.60645 12.6896L10.3061 8.20508L16.9926 9.4995L23.3606 11.7698L27.1397 13.6655L30.5513 17.414L28.9802 22.5794L26.1219 21.3401L16.5883 16.9842L8.60645 12.6896Z" fill="#E6AF0E"/>
<path d="M3.15173 22.8425L3.39775 22.72C3.557 22.3821 3.98677 22.2596 3.98677 22.2596L2.90673 17.1677L3.31812 11.8308L5.90696 5.41992L2.90673 8.20476L1.47143 12.873L1.27441 17.5974L2.45858 21.5113L2.91285 23.2171" fill="#E6AF0E"/>
<path d="M8.96875 28.4866L12.2079 26.4317L15.6368 22.4004L20.2439 24.7442L17.361 28.1007L15.1519 30.2353L10.8522 29.3512L8.96875 28.4866Z" fill="#E6AF0E"/>
<path d="M21.3545 4.34656L21.3606 1.78223L25.643 4.34656V6.12587L21.3545 4.34656Z" fill="#E6AF0E"/>
<path d="M10.3115 8.20552L12.8514 4.07114L14.4826 2.81348L21.7775 4.74591L26.1212 6.8621L29.201 8.88641L30.3658 12.2603L30.7711 16.5549H30.0595L26.7286 13.4567L18.2189 9.68369L10.3115 8.20552Z" fill="#114494"/>
<path d="M8.58789 12.6895V19.8669L18.9555 24.1922L25.3735 26.9413L28.0052 24.1371L28.4768 22.5793L8.58789 12.6895Z" fill="#114494"/>
<path d="M8.58799 19.8669L8.96876 11.7329L10.3122 8.20491L14.2322 2.81287L13.8637 0.665039L7.23845 3.24162L3.92585 9.31558L2.95605 16.5543L3.9871 22.2597L8.58799 19.8669Z" fill="#114494"/>
<path d="M30.7715 15.5371C30.7715 12.8677 30.0661 10.3646 28.8268 8.20552C28.7104 8.09527 28.6002 7.99114 28.4767 7.88702C27.8386 7.3225 27.1455 6.81923 26.4156 6.38333C26.2073 6.25471 26.0971 6.10771 26.1277 5.83719C26.1583 5.51869 26.1767 5.19304 26.189 4.85616C25.9246 4.60402 25.6551 4.36514 25.3733 4.13239C25.3672 4.15689 25.3672 4.18139 25.3611 4.20589C25.2743 4.66527 25.3427 5.14404 25.2498 5.62894C24.9681 5.49419 24.6975 5.36556 24.4342 5.22979C23.594 4.80104 22.7406 4.41414 21.8698 4.05889C21.7902 4.02725 21.7228 4.00887 21.7534 3.8925C21.9617 3.1136 21.6799 2.44496 21.3543 1.78243C20.9378 1.62318 20.508 1.47516 20.0721 1.35266C20.4345 2.00294 20.753 2.66546 20.8755 3.41373C20.9378 3.77 20.8939 3.80675 20.557 3.721C19.0666 3.34023 17.5752 2.95435 16.048 2.71446C15.6917 2.65933 15.3304 2.61646 14.968 2.58583C14.821 2.57358 14.7413 2.51846 14.7107 2.37146C14.6066 1.86206 14.4708 1.37104 14.2687 0.899414C13.9563 0.936164 13.6429 0.985164 13.3367 1.04029C13.4041 1.13829 13.4592 1.23629 13.5082 1.34654C13.6797 1.73956 13.7777 2.14994 13.8757 2.56746C13.9002 2.67771 13.9002 2.76958 13.7899 2.85023C12.1709 4.08339 10.999 5.68406 10.0598 7.4695C9.98018 7.62262 9.88218 7.7635 9.80255 7.91152C8.98078 9.40806 8.42851 10.9965 8.18249 12.6839C8.17637 12.7207 8.15187 13.7456 8.15187 13.7456L8.12737 15.1686C8.12737 15.1686 7.99262 17.6043 8.14574 19.2918C8.16412 19.4878 8.11512 19.6041 7.96199 19.7266C6.90645 20.5678 5.78455 21.2855 4.57589 21.8867C4.39724 21.9786 4.36662 21.9051 4.31762 21.7632C3.95624 20.6413 3.69797 19.4939 3.53259 18.322C3.39784 17.3593 3.31209 16.3957 3.31209 15.4197C3.31822 12.5247 3.93787 9.78271 5.34866 7.24287C6.43482 5.27879 7.90074 3.64137 9.66168 2.26121C9.70455 2.22446 9.75355 2.19383 9.79643 2.15708C8.39176 2.8196 7.09734 3.6965 5.9683 4.74591C4.37887 6.79473 3.34272 9.11406 2.80882 11.6723C2.4158 13.5863 2.3178 15.5188 2.48318 17.4635C2.61895 19.0825 2.89457 20.6781 3.37334 22.2359C3.41622 22.3829 3.40397 22.4635 3.24472 22.5125C3.18245 22.5309 3.1212 22.5554 3.06607 22.5737C3.20797 22.831 3.35497 23.077 3.50809 23.3281C5.32416 22.6105 6.97382 21.5978 8.50814 20.383C8.59389 20.3157 8.64901 20.2422 8.78376 20.3157C10.1649 21.0884 11.637 21.653 13.0784 22.2787C13.6123 22.5064 14.1401 22.7391 14.674 22.9657C14.7965 23.0147 14.8516 23.0586 14.7352 23.1873C13.8144 24.1989 12.9498 25.2667 11.8942 26.1436C10.9193 26.9541 9.86993 27.6473 8.64289 28.0087C8.52651 28.0393 8.41626 28.0699 8.29989 28.0883C8.64289 28.3037 8.99916 28.4997 9.36053 28.6834C10.1527 28.3772 10.8765 27.9719 11.5635 27.4942C12.7844 26.6407 13.7961 25.5607 14.772 24.4449C15.0415 24.1377 15.3181 23.8375 15.5876 23.5303C15.6856 23.42 15.7714 23.3955 15.9133 23.4568C17.1025 23.9662 18.2928 24.4756 19.4647 25.0156C19.6434 25.0952 19.624 25.1565 19.5382 25.3035C18.9063 26.4141 17.9437 27.2236 17.029 28.076C16.2318 28.8192 15.3916 29.5124 14.5382 30.1932C14.9618 30.2361 15.3916 30.2606 15.8204 30.2667C16.4155 29.7819 16.9678 29.297 17.5139 28.8008C18.6062 27.8065 19.6801 26.7877 20.5387 25.5668C20.6428 25.4198 20.7224 25.4443 20.851 25.4995C22.0719 26.0272 23.299 26.5305 24.5444 26.997C24.7108 27.0583 24.6363 27.144 24.6179 27.2298C24.5873 27.3523 24.5505 27.4686 24.5077 27.5799C28.299 24.9227 30.7715 20.5188 30.7715 15.5371ZM11.9739 6.18121C12.6119 5.29716 13.2989 4.45089 14.1094 3.71487C14.2503 3.58625 14.3851 3.55562 14.5749 3.58012C16.4839 3.82512 18.3724 4.16914 20.2253 4.69691C22.4221 5.32881 24.5322 6.15671 26.4523 7.42662C27.2506 7.95439 27.9805 8.55566 28.6492 9.24881C29.1524 9.77046 29.4709 10.3646 29.6363 11.0832C29.9681 12.5247 30.2315 13.9783 30.2621 15.4636C30.2621 15.5616 30.2621 15.6658 30.256 15.7638C30.2498 15.8801 30.2315 15.9904 30.2192 16.1078C30.1212 16.0894 30.0906 16.021 30.0416 15.972C28.1949 13.9171 25.9184 12.4695 23.4337 11.3282C20.1334 9.80721 16.6615 8.88029 13.0907 8.25452C12.4281 8.13814 11.7656 8.05852 11.097 7.96052C11.0173 7.94827 10.9438 7.92989 10.852 7.90539C11.1827 7.28575 11.5757 6.72735 11.9739 6.18121ZM9.20741 11.8254C9.44016 10.8066 9.80255 9.83171 10.2629 8.89254C10.3181 8.77616 10.3732 8.73329 10.5079 8.75166C14.9006 9.30394 19.1769 10.3095 23.2132 12.1745C25.5203 13.2423 27.6304 14.598 29.3546 16.5059C29.5383 16.708 29.7037 16.9234 29.8823 17.1317C30.0783 17.3655 29.9865 17.6533 30.0538 17.9851C29.8456 19.205 29.5751 20.4688 28.7717 21.5427C28.4644 21.9541 28.446 21.948 27.9622 21.7765C26.5075 21.261 25.1212 20.5801 23.7349 19.9175C19.0482 17.684 14.4279 15.3034 9.85155 12.8493C9.7658 12.8003 9.68005 12.7513 9.5943 12.7023C9.07878 12.4022 9.07266 12.4022 9.20741 11.8254ZM25.9613 25.6475C25.7898 25.7945 25.5938 25.917 25.3917 26.015C25.0661 26.1742 24.7537 26.1865 24.4035 26.0395C20.3917 24.3653 16.3665 22.7085 12.3546 21.0394C11.3481 20.6229 10.3548 20.1932 9.38503 19.6899C9.20741 19.598 9.12166 19.4816 9.10328 19.2795C8.93791 17.3777 8.90116 15.4759 9.08491 13.5741C9.09103 13.5363 9.09716 13.5057 9.10328 13.4689C9.23191 13.4689 9.30541 13.5557 9.40341 13.6047C14.919 16.5488 20.4774 19.4265 26.1767 22.0031C26.7229 22.2481 27.2751 22.4757 27.8448 22.6534C27.9622 22.6901 28.0479 22.7207 27.9683 22.8739C27.4283 23.8804 26.8637 24.8859 25.9613 25.6475Z" fill="black"/>
<path d="M9.11523 27.1125C11.1212 28.2722 13.4466 28.9347 15.9252 28.9347C23.4467 28.9347 29.5503 22.8363 29.5503 15.3087C29.5503 13.7447 29.2869 12.2472 28.802 10.8486C28.802 10.8486 26.4153 16.1498 20.3179 20.812C14.2194 25.4741 9.11523 27.1125 9.11523 27.1125Z" fill="black" fill-opacity="0.25"/>
<mask id="mask0_188_1210" style="mask-type:luminance" maskUnits="userSpaceOnUse" x="0" y="0" width="32" height="31">
<path d="M0.833008 0.34668H31.213V30.7267H0.833008V0.34668Z" fill="white"/>
</mask>
<g mask="url(#mask0_188_1210)">
<path d="M16.023 30.7267C11.9672 30.7267 8.15136 29.1434 5.28078 26.2789C2.40917 23.4073 0.833008 19.5914 0.833008 15.5367C0.833008 11.4809 2.4153 7.66503 5.28078 4.79445C8.15136 1.92285 11.9611 0.34668 16.023 0.34668C20.0778 0.34668 23.8936 1.92285 26.7652 4.79445C29.6358 7.66503 31.213 11.4748 31.213 15.5367C31.213 19.5914 29.6297 23.4073 26.7652 26.2789C23.8998 29.1495 20.0778 30.7267 16.023 30.7267ZM16.023 1.2297C12.201 1.2297 8.60563 2.72012 5.90655 5.42022C3.20747 8.11931 1.71603 11.7147 1.71603 15.5367C1.71603 19.3587 3.20747 22.953 5.90655 25.6531C8.60563 28.3522 12.201 29.8426 16.023 29.8426C19.845 29.8426 23.4404 28.3522 26.1395 25.6531C28.8386 22.953 30.329 19.3587 30.329 15.5367C30.329 11.7147 28.8386 8.11931 26.1395 5.42022C23.4332 2.71399 19.845 1.2297 16.023 1.2297Z" fill="black"/>
</g>
<path d="M10.8022 34.9001C11.3739 34.9654 11.624 35.3003 11.5535 35.9046L11.1289 39.5306L10.1611 39.4203L10.3367 37.9258L9.63845 37.8442L9.46287 39.3387L8.49512 39.2243L8.91978 35.5983C8.99022 34.994 9.31178 34.7245 9.88345 34.7898L10.8022 34.9001ZM9.7242 37.0969L10.4225 37.1786L10.598 35.68C10.6031 35.6422 10.595 35.6085 10.5735 35.5779C10.5511 35.5483 10.5215 35.531 10.4837 35.5248L10.0509 35.4718C10.0121 35.4697 9.97839 35.4799 9.94878 35.5044C9.92122 35.5289 9.90489 35.5606 9.89978 35.5983L9.7242 37.0969Z" fill="white"/>
<path d="M14.6442 35.226L15.5793 35.2628L14.4809 39.7177L13.362 39.6769L12.6025 35.1484L13.5458 35.1852L13.9705 38.4804L14.6442 35.226Z" fill="white"/>
<path d="M19.1983 35.9905L19.3126 38.7876C19.3392 39.4001 19.0676 39.7176 18.496 39.739L17.569 39.7798C16.9943 39.8043 16.6932 39.5103 16.6666 38.8978L16.5523 36.1008C16.5278 35.4913 16.8024 35.1738 17.3771 35.1493L18.304 35.1085C18.8757 35.0871 19.1738 35.3811 19.1983 35.9905ZM18.349 38.9428L18.2224 35.917C18.2193 35.8792 18.206 35.8466 18.1815 35.819C18.157 35.7894 18.1254 35.7761 18.0876 35.7782L17.6507 35.7945C17.6119 35.7976 17.5792 35.8139 17.5527 35.8435C17.5282 35.8741 17.517 35.9078 17.52 35.9456L17.6466 38.9713C17.6466 39.0071 17.6599 39.0387 17.6875 39.0653C17.714 39.0928 17.7467 39.1051 17.7855 39.102L18.2224 39.0857C18.2601 39.0836 18.2897 39.0683 18.3122 39.0408C18.3367 39.0112 18.349 38.9785 18.349 38.9428Z" fill="white"/>
<path d="M21.9636 37.5833L21.8778 36.8688L23.1559 36.7136L23.3519 38.3551C23.4254 38.9656 23.1763 39.3045 22.6046 39.3718L21.7349 39.478C21.1632 39.5464 20.8406 39.2759 20.7671 38.6654L20.4364 35.8847C20.3629 35.2803 20.612 34.9445 21.1836 34.8761L22.0534 34.7699C22.6251 34.7026 22.9476 34.97 23.0211 35.5743L23.0701 35.999L22.1473 36.1093L22.082 35.5743C22.0789 35.5366 22.0636 35.5049 22.0371 35.4804C22.0095 35.4539 21.9768 35.4427 21.9391 35.4478L21.5021 35.5008C21.4664 35.5039 21.4378 35.5213 21.4164 35.5539C21.3939 35.5866 21.3847 35.6223 21.3878 35.6601L21.7512 38.6654C21.7533 38.7012 21.7696 38.7308 21.8002 38.7553C21.8298 38.7798 21.8625 38.791 21.8982 38.7879L22.3351 38.7348C22.3729 38.7297 22.4015 38.7124 22.4209 38.6818C22.4393 38.6491 22.4474 38.6154 22.4454 38.5797L22.3188 37.5384L21.9636 37.5833Z" fill="white"/>
</g>
<defs>
<clipPath id="clip0_188_1210">
<rect width="32" height="40" fill="white"/>
</clipPath>
</defs>
</svg>
