<svg width="105" height="105" viewBox="0 0 105 105" fill="none" xmlns="http://www.w3.org/2000/svg">
<path d="M84.0178 27.4955C82.2594 25.7257 80.1716 24.3217 77.8737 23.3639C75.5758 22.406 73.1129 21.913 70.6255 21.913C68.1382 21.913 65.6752 22.406 63.3773 23.3639C61.0794 24.3217 58.9916 25.7257 57.2332 27.4955L53.5839 31.1667L49.9346 27.4955C46.3827 23.9223 41.5653 21.9149 36.5422 21.9149C31.5192 21.9149 26.7018 23.9223 23.1499 27.4955C19.5981 31.0686 17.6027 35.9149 17.6027 40.9681C17.6027 46.0214 19.5981 50.8677 23.1499 54.4408L26.7993 58.1121L53.5839 85.0574L80.3685 58.1121L84.0178 54.4408C85.777 52.6719 87.1726 50.5716 88.1247 48.2599C89.0769 45.9482 89.5669 43.4704 89.5669 40.9681C89.5669 38.4659 89.0769 35.9881 88.1247 33.6764C87.1726 31.3647 85.777 29.2644 84.0178 27.4955Z" stroke="#B59B42" stroke-width="2" stroke-linecap="round" stroke-linejoin="round"/>
</svg>
