<svg width="194" height="194" viewBox="0 0 194 194" fill="none" xmlns="http://www.w3.org/2000/svg">
<path d="M168.938 37.2643C164.81 33.1337 159.908 29.8571 154.512 27.6215C149.117 25.386 143.334 24.2354 137.494 24.2354C131.654 24.2354 125.871 25.386 120.476 27.6215C115.08 29.8571 110.178 33.1337 106.05 37.2643L97.4815 45.8326L88.9132 37.2643C80.5737 28.9248 69.2629 24.2397 57.469 24.2397C45.6752 24.2397 34.3644 28.9248 26.0248 37.2643C17.6853 45.6038 13.0002 56.9146 13.0002 68.7084C13.0002 80.5023 17.6853 91.8131 26.0248 100.153L34.5932 108.721L97.4815 171.609L160.37 108.721L168.938 100.153C173.069 96.024 176.345 91.122 178.581 85.7267C180.816 80.3314 181.967 74.5485 181.967 68.7084C181.967 62.8683 180.816 57.0854 178.581 51.6902C176.345 46.2949 173.069 41.3929 168.938 37.2643Z" stroke="#981015" stroke-width="10" stroke-linecap="round" stroke-linejoin="round"/>
</svg>
