<svg width="45" height="42" viewBox="0 0 45 42" fill="none" xmlns="http://www.w3.org/2000/svg">
<path d="M31.875 3.5H13.125C7.94733 3.5 3.75 7.41751 3.75 12.25V29.75C3.75 34.5825 7.94733 38.5 13.125 38.5H31.875C37.0527 38.5 41.25 34.5825 41.25 29.75V12.25C41.25 7.41751 37.0527 3.5 31.875 3.5Z" stroke="white" stroke-width="2" stroke-linecap="round" stroke-linejoin="round"/>
<path d="M29.9999 19.8971C30.2313 21.3535 29.9648 22.8409 29.2382 24.1478C28.5117 25.4547 27.3621 26.5145 25.953 27.1765C24.5439 27.8384 22.947 28.0688 21.3895 27.8349C19.832 27.601 18.3932 26.9147 17.2778 25.8736C16.1623 24.8325 15.4269 23.4896 15.1763 22.0359C14.9257 20.5823 15.1726 19.0919 15.8818 17.7767C16.591 16.4615 17.7265 15.3886 19.1268 14.7105C20.527 14.0323 22.1207 13.7836 23.6812 13.9996C25.2729 14.2198 26.7465 14.9121 27.8844 15.9741C29.0222 17.0361 29.7639 18.4114 29.9999 19.8971Z" stroke="white" stroke-width="2" stroke-linecap="round" stroke-linejoin="round"/>
<path d="M32.8125 11.375H32.8307" stroke="white" stroke-width="2" stroke-linecap="round" stroke-linejoin="round"/>
</svg>
