<svg width="57" height="57" viewBox="0 0 57 57" fill="none" xmlns="http://www.w3.org/2000/svg">
<circle cx="28.5" cy="28.5" r="28.5" fill="#D9D9D9"/>
<path d="M42.3047 43.084V39.7441C42.3047 37.9726 41.6009 36.2736 40.3483 35.0209C39.0956 33.7682 37.3966 33.0645 35.625 33.0645H22.2656C20.4941 33.0645 18.7951 33.7682 17.5424 35.0209C16.2897 36.2736 15.5859 37.9726 15.5859 39.7441V43.084" stroke="black" stroke-width="2" stroke-linecap="round" stroke-linejoin="round"/>
<path d="M28.9453 26.3848C32.6344 26.3848 35.625 23.3942 35.625 19.7051C35.625 16.016 32.6344 13.0254 28.9453 13.0254C25.2562 13.0254 22.2656 16.016 22.2656 19.7051C22.2656 23.3942 25.2562 26.3848 28.9453 26.3848Z" stroke="black" stroke-width="2" stroke-linecap="round" stroke-linejoin="round"/>
</svg>
