<svg width="17" height="16" viewBox="0 0 17 16" fill="none" xmlns="http://www.w3.org/2000/svg">
<path d="M6.59789 1.8541C7.19659 0.0114775 9.80341 0.0114794 10.4021 1.8541L10.8574 3.25532C11.1251 4.07937 11.8931 4.63729 12.7595 4.63729H14.2328C16.1703 4.63729 16.9758 7.11652 15.4084 8.25532L14.2165 9.12132C13.5155 9.63061 13.2222 10.5333 13.4899 11.3574L13.9452 12.7586C14.5439 14.6012 12.4349 16.1335 10.8675 14.9947L9.67557 14.1287C8.9746 13.6194 8.0254 13.6194 7.32443 14.1287L6.13248 14.9947C4.56505 16.1335 2.45609 14.6012 3.0548 12.7586L3.51008 11.3574C3.77783 10.5333 3.48451 9.63061 2.78354 9.12132L1.59159 8.25532C0.0241599 7.11652 0.829712 4.63729 2.76716 4.63729H4.24049C5.10694 4.63729 5.87485 4.07937 6.1426 3.25532L6.59789 1.8541Z" fill="#D5B804"/>
</svg>
