<svg width="205" height="205" viewBox="0 0 205 205" fill="none" xmlns="http://www.w3.org/2000/svg">
<path d="M145.208 179.375V162.292C145.208 153.23 141.609 144.54 135.201 138.132C128.794 131.725 120.103 128.125 111.042 128.125H42.7084C33.6468 128.125 24.9564 131.725 18.5489 138.132C12.1414 144.54 8.54175 153.23 8.54175 162.292V179.375" stroke="#981015" stroke-width="7" stroke-linecap="round" stroke-linejoin="round"/>
<path d="M76.8749 93.9583C95.7446 93.9583 111.042 78.6614 111.042 59.7917C111.042 40.9219 95.7446 25.625 76.8749 25.625C58.0052 25.625 42.7083 40.9219 42.7083 59.7917C42.7083 78.6614 58.0052 93.9583 76.8749 93.9583Z" stroke="#981015" stroke-width="7" stroke-linecap="round" stroke-linejoin="round"/>
<path d="M196.458 179.375V162.292C196.453 154.721 193.933 147.367 189.295 141.384C184.657 135.401 178.163 131.128 170.833 129.235" stroke="#981015" stroke-width="7" stroke-linecap="round" stroke-linejoin="round"/>
<path d="M136.667 26.7354C144.016 28.6171 150.53 32.8913 155.182 38.8843C159.834 44.8772 162.359 52.2479 162.359 59.8343C162.359 67.4208 159.834 74.7915 155.182 80.7844C150.53 86.7773 144.016 91.0515 136.667 92.9333" stroke="#981015" stroke-width="7" stroke-linecap="round" stroke-linejoin="round"/>
</svg>
