<svg width="44" height="42" viewBox="0 0 44 42" fill="none" xmlns="http://www.w3.org/2000/svg">
<path d="M41.3236 11.235C41.1058 10.4045 40.6623 9.6435 40.0378 9.02896C39.4133 8.41442 38.6299 7.96807 37.7669 7.735C34.6136 7 22.0002 7 22.0002 7C22.0002 7 9.3869 7 6.23357 7.805C5.37052 8.03807 4.58719 8.48442 3.9627 9.09896C3.33821 9.7135 2.89468 10.4745 2.6769 11.305C2.09979 14.3597 1.8175 17.4585 1.83357 20.5625C1.813 23.6898 2.09531 26.8123 2.6769 29.89C2.91699 30.6947 3.37046 31.4268 3.9935 32.0153C4.61653 32.6039 5.38807 33.0292 6.23357 33.25C9.3869 34.055 22.0002 34.055 22.0002 34.055C22.0002 34.055 34.6136 34.055 37.7669 33.25C38.6299 33.0169 39.4133 32.5706 40.0378 31.956C40.6623 31.3415 41.1058 30.5805 41.3236 29.75C41.8962 26.7183 42.1785 23.6431 42.1669 20.5625C42.1875 17.4352 41.9052 14.3127 41.3236 11.235Z" stroke="white" stroke-width="2" stroke-linecap="round" stroke-linejoin="round"/>
<path d="M17.875 26.2848L28.4167 20.5623L17.875 14.8398V26.2848Z" stroke="white" stroke-width="2" stroke-linecap="round" stroke-linejoin="round"/>
</svg>
